<?xml version="1.0" standalone="no"?>
<!DOCTYPE svg PUBLIC "-//W3C//DTD SVG 1.1//EN" "http://www.w3.org/Graphics/SVG/1.1/DTD/svg11.dtd" >
<svg xmlns="http://www.w3.org/2000/svg">
<defs>
  <font id="TRAVLR 1.5.2" horiz-adv-x="256">
    <font-face font-family="TRAVLR 1.5.2"
      units-per-em="256" ascent="256"
      descent="0" />
    <missing-glyph horiz-adv-x="0" />
    <glyph glyph-name="24h"
      unicode="&#xEA02;"
      horiz-adv-x="256" d="M213.184 213.3333333333334H42.816L21.3333333333333 138.8906666666667V117.408H42.816V53.4613333333334H106.7626666666667V96.1706666666667H149.2373333333333V53.4613333333334H213.184V117.408H234.6666666666667V138.8906666666667L213.184 213.3333333333334zM117.2586666666667 170.8693333333334V149.3866666666667H96.032V138.8906666666667H117.2586666666667V128.1493333333334H85.28V160.128H106.7626666666667V170.8693333333334H85.28V181.3546666666667H117.2586666666667V170.8693333333334zM170.72 160.128V128.1493333333334H159.9786666666667V149.376H138.7413333333333V181.3653333333334H149.2373333333334V160.1386666666667H159.9786666666667V181.3653333333333H170.72V160.1386666666667z" />
    <glyph glyph-name="add-list"
      unicode="&#xEA03;"
      horiz-adv-x="256" d="M21.3333333333333 96V117.0346666666667H106.464V96H21.3333333333333zM192.1066666666667 117.0346666666667H234.6666666666667V96H192.1066666666667V52.928H170.56V96H128V117.0346666666667H170.56V160.096H192.1066666666667V117.0346666666667zM149.5253333333333 202.6666666666667V181.1306666666667H21.3333333333333V202.6666666666667H149.536zM149.5253333333333 160.1066666666667V138.56H21.3333333333333V160.1066666666667H149.536z" />
    <glyph glyph-name="aircon"
      unicode="&#xEA04;"
      horiz-adv-x="256" d="M90.0266666666667 117.504L48.32 75.7973333333334L33.3226666666667 90.7840000000001L59.8826666666667 117.5040000000001H21.3333333333333V138.7413333333334H60.0533333333333L33.3226666666667 165.472L48.32 180.4586666666667L90.24 138.7413333333333H117.2693333333333V166.4746666666667L75.552 208.1813333333333L90.7946666666667 223.1786666666667L117.2693333333333 196.6933333333333V234.6666666666667H138.752V196.6933333333333L165.2266666666667 223.1786666666667L180.4693333333334 208.192L138.7520000000001 166.4746666666667V138.7413333333333H166.0266666666667L207.9466666666667 180.4586666666667L222.9333333333333 165.472L196.2026666666666 138.7413333333333H234.6666666666667V117.5146666666667H196.3733333333333L222.9333333333333 90.784L207.936 75.7866666666667L166.2293333333333 117.504H138.7413333333333V89.7706666666667L180.4586666666667 48.064L165.216 33.0773333333333L138.7413333333333 59.552V21.5786666666667H117.2586666666667V59.552L90.784 33.0773333333333L75.5413333333333 48.064L117.2586666666667 89.7706666666667V117.504H90.0266666666667z" />
    <glyph glyph-name="angle-down-small"
      unicode="&#xEA05;"
      horiz-adv-x="256" d="M177.7493333333334 170.6666666666667L128 119.5093333333334L78.2506666666667 170.6666666666667L64 156.8853333333333L128 91.0186666666667L192 156.8853333333333z" />
    <glyph glyph-name="angle-down"
      unicode="&#xEA06;"
      horiz-adv-x="256" d="M36.8213333333333 192L128 106.5706666666667L219.1786666666667 191.7546666666667L234.6666666666667 176.0106666666667L128 74.592L21.3333333333333 176.0106666666667z" />
    <glyph glyph-name="activity"
      unicode="&#xEA07;"
      horiz-adv-x="256" d="M142.08 192.9386666666667C147.776 192.9386666666667 152.6613333333333 194.9653333333333 156.7253333333333 199.04C160.7893333333333 203.104 162.8266666666667 207.9893333333333 162.8266666666667 213.6853333333334C162.8266666666667 219.5413333333334 160.8 224.5013333333334 156.7253333333333 228.5653333333334A19.968 19.968 0 0 1 142.08 234.6666666666667C136.384 234.6666666666667 131.5093333333333 232.64 127.4453333333333 228.5653333333334A20.256000000000004 20.256000000000004 0 0 1 121.344 213.6853333333334C121.344 207.9893333333333 123.3706666666667 203.104 127.4453333333333 199.04C131.5093333333333 194.976 136.384 192.9386666666667 142.08 192.9386666666667zM103.5306666666667 157.5573333333334L74.496 10.6666666666667H96.2133333333333L114.9973333333333 94.1226666666667L136.96 73.1306666666667V10.6666666666667H157.696V88.7466666666667L135.7333333333333 109.7386666666667L142.08 140.9706666666667A78.13333333333333 78.13333333333333 0 0 1 167.2106666666667 122.0586666666667C177.1306666666666 117.2586666666667 187.872 114.8586666666667 199.424 114.8586666666667V135.5946666666667C189.504 135.5946666666667 180.5973333333333 137.9626666666667 172.704 142.6773333333333C164.8106666666666 147.392 158.752 153.408 154.528 160.736L144.288 177.3226666666667A26.592 26.592 0 0 1 136.4693333333333 184.896A18.389333333333333 18.389333333333333 0 0 1 126.464 187.8186666666667H115.9786666666667L64 163.904V114.8586666666667H84.736V150.24L103.5306666666667 157.5573333333334z" />
    <glyph glyph-name="angle-left"
      unicode="&#xEA08;"
      horiz-adv-x="256" d="M192.0533333333333 219.4133333333333L96.0106666666667 128.128L191.7973333333333 36.8426666666667L176.0426666666667 21.3333333333333L64 128.128L176.2986666666666 234.6666666666667z" />
    <glyph glyph-name="angle-right-small"
      unicode="&#xEA09;"
      horiz-adv-x="256" d="M85.3333333333333 78.2186666666667L136.3946666666667 128.1173333333333L85.3333333333333 177.7813333333334L99.3173333333333 192L165.0666666666667 128.1173333333333L99.3173333333333 64z" />
    <glyph glyph-name="angle-left-small"
      unicode="&#xEA0A;"
      horiz-adv-x="256" d="M165.0666666666667 78.2186666666667L114.016 128.1173333333333L165.0666666666667 177.7813333333333L151.0826666666667 192L85.3333333333333 128.1173333333333L151.0826666666667 64z" />
    <glyph glyph-name="angle-up-small"
      unicode="&#xEA0B;"
      horiz-adv-x="256" d="M78.2506666666667 91.0186666666667L128 142.1653333333333L177.7493333333333 91.0186666666667L192 105.0346666666667L128 170.6666666666667L64 105.0346666666667z" />
    <glyph glyph-name="accessibility"
      unicode="&#xEA0C;"
      horiz-adv-x="256" d="M144.5653333333334 203.808C144.5653333333334 209.3546666666667 142.592 214.1013333333334 138.624 218.0586666666667A19.445333333333334 19.445333333333334 0 0 1 124.3733333333333 224C118.8266666666667 224 114.08 222.016 110.1226666666667 218.0586666666667A19.445333333333334 19.445333333333334 0 0 1 104.1813333333333 203.808C104.1813333333333 198.2613333333334 106.1546666666667 193.504 110.1226666666667 189.5466666666667C114.0693333333334 185.5893333333334 118.8266666666667 183.6053333333333 124.3733333333333 183.6053333333333C129.92 183.6053333333333 134.6666666666667 185.5893333333334 138.624 189.5466666666667A19.413333333333338 19.413333333333338 0 0 1 144.5653333333334 203.808zM195.4133333333334 112.5653333333333V132.768A53.01333333333333 53.01333333333333 0 0 0 172.48 137.9946666666667A58.26133333333333 58.26133333333333 0 0 0 154.0693333333334 151.296L141.0133333333333 165.792A10.389333333333333 10.389333333333333 0 0 1 138.1653333333333 168.5226666666667A74.57066666666667 74.57066666666667 0 0 1 134.8373333333333 170.5493333333333H134.6026666666666A27.167999999999996 27.167999999999996 0 0 1 128.7786666666666 172.6826666666667A20.56533333333333 20.56533333333333 0 0 1 122.4853333333333 173.152C117.0986666666666 172.6826666666667 112.704 170.3786666666667 109.3013333333333 166.2613333333334C105.888 162.144 104.1813333333333 157.472 104.1813333333333 152.2453333333334V92.3733333333333C104.1813333333333 86.6666666666667 106.1653333333333 81.8453333333333 110.1333333333333 77.8773333333333C114.08 73.92 118.8373333333333 71.936 124.384 71.936H174.9866666666666V21.3333333333333H195.424V77.1626666666667C195.424 82.7093333333334 193.44 87.4666666666667 189.4826666666666 91.424A19.722666666666665 19.722666666666665 0 0 1 174.9866666666666 97.3653333333334H144.5866666666666V132.288C151.2319999999999 126.9013333333334 159.1466666666666 122.2613333333334 168.3413333333333 118.3893333333334C177.5253333333332 114.5066666666667 186.5493333333332 112.5653333333333 195.4239999999999 112.5653333333333zM104.1813333333334 41.5253333333334A29.301333333333332 29.301333333333332 0 0 0 82.6773333333334 50.4426666666667A29.301333333333332 29.301333333333332 0 0 0 73.7706666666667 71.936C73.7706666666667 78.592 75.6693333333334 84.5333333333334 79.4666666666667 89.7600000000001C83.2746666666667 94.9866666666667 88.1066666666667 98.6346666666667 93.9626666666667 100.6933333333334V121.6C82.4 119.3813333333334 72.736 113.6426666666667 64.9706666666667 104.3733333333334C57.216 95.104 53.3333333333333 84.2986666666667 53.3333333333333 71.9466666666667C53.3333333333333 64.9706666666667 54.6773333333333 58.4 57.376 52.2133333333334C60.064 46.048 63.712 40.6933333333334 68.2986666666667 36.1813333333334C72.8853333333333 31.6693333333334 78.2826666666667 28.0746666666667 84.4586666666667 25.3760000000001A48.74666666666666 48.74666666666666 0 0 1 104.1813333333333 21.3333333333333A48.64000000000001 48.64000000000001 0 0 1 136.3733333333333 32.9706666666667C145.6426666666667 40.736 151.456 50.4 153.8346666666667 61.9626666666667H132.6933333333333A30.762666666666668 30.762666666666668 0 0 0 121.8773333333333 47.3493333333333A28.618666666666662 28.618666666666662 0 0 0 104.1706666666667 41.5253333333333z" />
    <glyph glyph-name="arrow-down-left"
      unicode="&#xEA0D;"
      horiz-adv-x="256" d="M187.0186666666667 202.6666666666667L202.6666666666667 187.0186666666667L91.264 75.616L179.0933333333333 75.7973333333333V53.3333333333333L53.3333333333333 53.5146666666667L53.5146666666667 179.2853333333334H75.616V91.264z" />
    <glyph glyph-name="angle-up"
      unicode="&#xEA0E;"
      horiz-adv-x="256" d="M219.1786666666666 85.2586666666667L128 170.688L36.8213333333333 85.504L21.3333333333333 101.248L128 202.6666666666667L234.6666666666667 101.248z" />
    <glyph glyph-name="angle-right"
      unicode="&#xEA0F;"
      horiz-adv-x="256" d="M74.6666666666667 36.8426666666667L170.7093333333333 128.128L74.912 219.4133333333333L90.6773333333333 234.6666666666667L202.72 128.128L90.4213333333333 21.3333333333333z" />
    <glyph glyph-name="arrow-down"
      unicode="&#xEA10;"
      horiz-adv-x="256" d="M138.6666666666667 224V72.7466666666667L198.1653333333333 132.5013333333333L213.1626666666667 117.248L127.9146666666667 32L42.6666666666667 117.248L57.664 132.2453333333334L117.1626666666667 72.7466666666667V224z" />
    <glyph glyph-name="account"
      unicode="&#xEA11;"
      horiz-adv-x="256" d="M128 234.6666666666667A104 104 0 0 1 86.528 226.2933333333334A107.54133333333334 107.54133333333334 0 0 1 52.5546666666667 203.4453333333334A107.92533333333336 107.92533333333336 0 0 1 29.7066666666667 169.5893333333334A103.072 103.072 0 0 1 21.3333333333333 128.2453333333334C21.3333333333333 113.4186666666667 24.128 99.5626666666667 29.7066666666667 86.656A107.92533333333336 107.92533333333336 0 0 1 52.5546666666667 52.8106666666667C62.2186666666667 43.1466666666667 73.5466666666667 35.5306666666667 86.528 29.952A103.95733333333334 103.95733333333334 0 0 1 128 21.5786666666667A104 104 0 0 1 169.472 29.952A107.54133333333334 107.54133333333334 0 0 1 203.4453333333333 52.8106666666667A107.92533333333336 107.92533333333336 0 0 1 226.2933333333333 86.656C231.872 99.5626666666667 234.6666666666667 113.4293333333334 234.6666666666667 128.256A103.072 103.072 0 0 1 226.2933333333333 169.5893333333334A107.92533333333336 107.92533333333336 0 0 1 203.4453333333333 203.4453333333334A107.54133333333334 107.54133333333334 0 0 1 169.472 226.2933333333333A103.95733333333334 103.95733333333334 0 0 1 128 234.6666666666667zM192.2026666666667 72.0426666666667A79.16799999999999 79.16799999999999 0 0 1 164.9706666666667 97.2693333333333C153.8133333333333 103.6053333333333 141.4933333333334 106.7626666666667 128 106.7626666666667C114.5066666666667 106.7626666666667 102.1866666666667 103.6053333333333 91.0293333333333 97.2693333333333A76.93866666666668 76.93866666666668 0 0 1 64.0426666666667 72.0426666666667A84.58666666666667 84.58666666666667 0 0 0 48.4373333333333 97.6426666666667A83.22133333333332 83.22133333333332 0 0 0 42.816 128.256C42.816 139.904 45.024 150.944 49.4293333333333 161.344A83.57333333333334 83.57333333333334 0 0 0 67.6693333333333 188.448A88.23466666666667 88.23466666666667 0 0 0 94.7733333333333 206.688A82.29333333333332 82.29333333333332 0 0 0 128 213.4293333333333C139.8293333333333 213.4293333333333 150.9013333333333 211.1893333333333 161.2266666666667 206.688A88.23466666666667 88.23466666666667 0 0 0 188.32 188.448A83.57333333333334 83.57333333333334 0 0 0 206.56 161.3546666666667C210.976 150.944 213.1733333333334 139.9146666666667 213.1733333333334 128.2453333333334A83.22133333333332 83.22133333333332 0 0 0 207.5626666666667 97.6533333333334A87.36 87.36 0 0 0 192.2026666666667 72.0533333333334zM159.7226666666667 149.4826666666667C159.7226666666667 158.3146666666667 156.608 165.8453333333333 150.3573333333334 172.096A30.80533333333333 30.80533333333333 0 0 1 127.744 181.4613333333333C118.9226666666667 181.4613333333333 111.392 178.336 105.1413333333334 172.0853333333333A30.80533333333333 30.80533333333333 0 0 1 95.776 149.4826666666667C95.776 140.6613333333334 98.9013333333333 133.12 105.1413333333333 126.8693333333333A30.80533333333333 30.80533333333333 0 0 1 127.7546666666667 117.504C136.576 117.504 144.1173333333333 120.6293333333333 150.3573333333334 126.88A30.80533333333333 30.80533333333333 0 0 1 159.7226666666667 149.4933333333334z" />
    <glyph glyph-name="arrow-right"
      unicode="&#xEA12;"
      horiz-adv-x="256" d="M32 138.5813333333334H183.2533333333333L123.4986666666667 198.336L138.496 213.3333333333334L224 128.0853333333333L138.752 42.5813333333333L123.4986666666667 57.8346666666667L183.2533333333333 117.3333333333334H32z" />
    <glyph glyph-name="arrow-up-long"
      unicode="&#xEA13;"
      horiz-adv-x="256" d="M192.0533333333333 170.6453333333333L128.0213333333333 234.6666666666667L64 170.6453333333333L79.008 155.6373333333334L117.2693333333333 193.8986666666667V21.3333333333333H138.784V193.8986666666667L177.0453333333333 155.6373333333334z" />
    <glyph glyph-name="arrow-down-right"
      unicode="&#xEA14;"
      horiz-adv-x="256" d="M68.9813333333333 202.6666666666667L180.384 91.264V179.2853333333334H202.4853333333334L202.6666666666667 53.5146666666667L76.9066666666667 53.3333333333333V75.7973333333333L164.736 75.616L53.3333333333333 187.0186666666667z" />
    <glyph glyph-name="arrow-up"
      unicode="&#xEA15;"
      horiz-adv-x="256" d="M138.6666666666667 32V182.9973333333333L198.1653333333333 123.4986666666667L213.1626666666667 138.496L127.9146666666667 224L42.6666666666667 138.496L57.664 123.4986666666667L117.1626666666667 182.9973333333334V32z" />
    <glyph glyph-name="arrows-alt"
      unicode="&#xEA16;"
      horiz-adv-x="256" d="M194.3146666666667 179.0506666666667L213.3333333333333 160.032V213.3333333333334H160.032L179.296 194.0693333333333L128 143.0186666666667L76.704 194.0693333333333L95.968 213.3333333333334H42.6666666666667V160.032L61.6853333333333 179.0506666666667L112.9813333333334 128L61.6853333333333 76.704L42.6666666666667 95.968V42.4213333333334H95.968L76.704 61.6853333333334L128 112.736L179.296 61.6853333333334L160.032 42.4213333333333H213.3333333333333V95.968L194.3146666666667 76.704L143.0186666666667 128z" />
    <glyph glyph-name="arrow-up-right"
      unicode="&#xEA17;"
      horiz-adv-x="256" d="M53.3333333333333 68.9813333333333L164.736 180.384H76.7146666666667V202.4853333333333L202.4853333333333 202.6666666666667L202.6666666666667 76.9066666666667H180.2026666666667L180.384 164.736L68.9813333333333 53.3333333333333z" />
    <glyph glyph-name="arrows-expand"
      unicode="&#xEA18;"
      horiz-adv-x="256" d="M106.752 121.7493333333334L56.5013333333333 71.5093333333334L32 96V32H96L71.4986666666667 56.5013333333333L121.7493333333334 106.496L106.752 121.7493333333333zM224 224H160L184.5013333333333 199.4986666666667L134.2506666666667 149.2586666666667L149.248 134.2506666666667L199.4986666666667 184.4906666666667L224 160V224z" />
    <glyph glyph-name="arrow-left"
      unicode="&#xEA19;"
      horiz-adv-x="256" d="M224 138.5813333333334H72.7466666666667L132.5013333333333 198.336L117.504 213.3333333333334L32 128.0853333333333L117.248 42.5813333333333L132.5013333333333 57.8346666666667L72.7466666666667 117.3333333333334H224z" />
    <glyph glyph-name="arrow-left-long"
      unicode="&#xEA1A;"
      horiz-adv-x="256" d="M234.6666666666667 138.5386666666667H62.8053333333333L102.7733333333333 176.7573333333334L87.5306666666667 192L21.3333333333333 128.0533333333334L87.5306666666667 64.096L102.7733333333333 79.0933333333333L62.8053333333333 117.312H234.6666666666667z" />
    <glyph glyph-name="arrow-right-long"
      unicode="&#xEA1B;"
      horiz-adv-x="256" d="M168.4693333333334 192L153.2266666666667 177.0133333333333L193.1946666666667 138.7946666666667H21.3333333333333V117.312H193.1946666666667L153.2266666666667 79.0933333333334L168.4693333333334 64.096L234.6666666666667 128.0533333333334z" />
    <glyph glyph-name="arrow-up-left"
      unicode="&#xEA1C;"
      horiz-adv-x="256" d="M202.6666666666667 68.9813333333333L187.0186666666667 53.3333333333333L75.616 164.736L75.7973333333333 76.9066666666667H53.3333333333333L53.5146666666667 202.6666666666667L179.2853333333334 202.4853333333333V180.384H91.264z" />
    <glyph glyph-name="arrow-down-long"
      unicode="&#xEA1D;"
      horiz-adv-x="256" d="M177.0453333333333 100.3626666666667L138.784 62.1013333333333V234.6666666666667H117.2693333333333V62.1013333333333L79.008 100.3626666666667L64 85.3546666666667L128.0213333333333 21.3333333333333L192.0533333333334 85.3546666666667z" />
    <glyph glyph-name="arrows-compress"
      unicode="&#xEA1E;"
      horiz-adv-x="256" d="M80.288 85.4613333333334L32 37.1626666666667L47.8293333333333 21.3333333333333L96.128 69.6213333333333L121.984 43.7653333333333V111.3173333333333H54.432L80.288 85.4613333333333zM234.6666666666667 208.1706666666667L218.8373333333333 224L170.5386666666667 175.712L144.6826666666667 201.568V134.016H212.2346666666667L186.3786666666667 159.872L234.6666666666667 208.1706666666667z" />
    <glyph glyph-name="arrows"
      unicode="&#xEA1F;"
      horiz-adv-x="256" d="M234.6666666666667 128.2453333333334L191.9466666666667 170.72V138.7413333333333H138.7413333333333V192.2026666666667H170.72L128 234.6666666666667L85.28 192.2026666666667H117.2586666666667V138.7413333333333H64.0533333333333V170.72L21.3333333333333 128.2453333333334L64.0533333333333 85.536V117.504H117.2586666666667V64.2986666666667H85.28L128 21.5786666666667L170.72 64.2986666666667H138.7413333333333V117.504H191.9466666666667V85.536z" />
    <glyph glyph-name="articles"
      unicode="&#xEA20;"
      horiz-adv-x="256" d="M53.4933333333333 202.5066666666667H32V32.0746666666667C32 29.088 33.0453333333333 26.5386666666667 35.1253333333333 24.4586666666667A10.367999999999999 10.367999999999999 0 0 1 42.7413333333333 21.3333333333334H202.6773333333333V42.5706666666667H53.4933333333333V202.5066666666667zM223.9253333333333 224H74.7306666666667A10.367999999999999 10.367999999999999 0 0 1 67.1146666666667 220.8746666666667A10.367999999999999 10.367999999999999 0 0 1 63.9893333333333 213.2586666666667V64.064C63.9893333333333 61.0666666666667 65.024 58.5173333333333 67.1146666666667 56.448A10.367999999999999 10.367999999999999 0 0 1 74.7306666666667 53.3226666666667H223.9253333333333A10.346666666666664 10.346666666666664 0 0 1 231.5413333333333 56.448A10.367999999999999 10.367999999999999 0 0 1 234.6666666666667 64.064V213.2586666666667A10.367999999999999 10.367999999999999 0 0 1 231.5413333333333 220.8746666666667A10.367999999999999 10.367999999999999 0 0 1 223.9253333333333 224zM213.4293333333333 74.56H85.4826666666667V202.5066666666667H213.4293333333333V74.56zM95.9786666666667 160.0213333333334H202.6666666666667V181.2693333333334H95.9786666666667V160.0213333333333zM95.9786666666667 128.0426666666667H202.6666666666667V149.28H95.9786666666667V128.0426666666667zM95.9786666666667 96.0426666666667H170.688V117.2906666666667H95.9786666666667V96.0533333333333z" />
    <glyph glyph-name="arrows-reverse"
      unicode="&#xEA21;"
      horiz-adv-x="256" d="M191.9466666666667 138.72L234.6666666666667 170.688L191.9466666666667 202.6666666666667V181.44H21.3333333333333V160.2026666666667H191.9466666666667V138.72zM64.0533333333333 117.4933333333334L21.3333333333333 85.4933333333333L64.0533333333333 53.5253333333334V74.752H234.4213333333334V96.2346666666667H64.0533333333333V117.472z" />
    <glyph glyph-name="baby"
      unicode="&#xEA22;"
      horiz-adv-x="256" d="M112.7253333333333 183.7546666666667V224A79.52 79.52 0 0 1 81.3653333333333 217.728A79.2 79.2 0 0 1 55.6693333333333 200.448A83.62666666666667 83.62666666666667 0 0 1 38.4 174.752C34.1333333333333 164.9706666666667 32 154.4853333333334 32 143.2746666666667H112.7253333333333V183.7546666666667zM188.4906666666667 153.4506666666667L178.5493333333333 133.088H32C32 123.776 33.4933333333333 114.944 36.5013333333333 106.5706666666667A79.76533333333333 79.76533333333333 0 0 1 49.0453333333333 83.8506666666667C45.4186666666667 80.5333333333334 42.496 76.6293333333334 40.288 72.128C38.08 67.6266666666667 36.9813333333333 62.6986666666667 36.9813333333333 57.3333333333333C36.9813333333333 47.7013333333333 40.448 39.4133333333334 47.392 32.48A34.208000000000006 34.208000000000006 0 0 1 72.48 22.0586666666667C81.3226666666667 22.0586666666667 89.056 25.0133333333334 95.68 30.9333333333333C102.3146666666666 36.8533333333333 106.176 44.0746666666667 107.2853333333333 52.5973333333333C108.2346666666666 52.5973333333333 109.184 52.5546666666667 110.1226666666667 52.48C111.0826666666666 52.3946666666667 111.936 52.3626666666667 112.7253333333333 52.3626666666667H128.352A34.93333333333333 34.93333333333333 0 0 1 140.0746666666667 30.816C146.624 24.9813333333333 154.4 22.0586666666667 163.392 22.0586666666667C173.024 22.0586666666667 181.312 25.5253333333333 188.2453333333333 32.4693333333333C195.2 39.4133333333333 198.6666666666666 47.7013333333333 198.6666666666666 57.3226666666666C198.6666666666666 63.9573333333333 197.0453333333333 69.9626666666666 193.8133333333333 75.328A35.08266666666667 35.08266666666667 0 0 1 181.152 87.872L203.6373333333333 133.0986666666667H224V153.44H188.48zM72.48 42.176C68.2133333333333 42.176 64.6293333333333 43.6693333333334 61.7066666666667 46.6773333333333A14.752000000000002 14.752000000000002 0 0 0 57.3333333333333 57.3333333333333C57.3333333333333 59.8613333333333 57.888 62.144 58.9866666666667 64.192C60.096 66.2506666666667 61.5146666666667 67.9893333333334 63.2533333333333 69.408C66.88 66.56 70.7093333333333 64.0746666666667 74.7306666666667 61.9413333333334A93.86666666666667 93.86666666666667 0 0 1 87.4026666666667 56.3946666666667C87.2426666666667 52.448 85.696 49.088 82.784 46.3253333333334A14.506666666666666 14.506666666666666 0 0 0 72.48 42.176zM163.392 42.176A14.719999999999997 14.719999999999997 0 0 0 154.5173333333334 45.024A14.144 14.144 0 0 0 149.184 52.3626666666667H163.392L171.9253333333333 69.8773333333334C173.9626666666667 68.4586666666667 175.584 66.6773333333334 176.768 64.544C177.952 62.4213333333333 178.5493333333333 60.0106666666667 178.5493333333333 57.3333333333333C178.5493333333333 53.2266666666667 177.0453333333333 49.6746666666667 174.048 46.6773333333333A14.560000000000002 14.560000000000002 0 0 0 163.392 42.176z" />
    <glyph glyph-name="bar"
      unicode="&#xEA23;"
      horiz-adv-x="256" d="M137.9733333333333 113.5573333333334L223.04 224H32L116.5866666666667 114.048V54.1013333333333H74.528V32.96H180.5013333333333V54.1013333333333H137.9626666666667V113.5573333333333zM180.512 202.6026666666667L163.84 181.4613333333333H91.2L74.2933333333333 202.6026666666667H180.512z" />
    <glyph glyph-name="basket"
      unicode="&#xEA24;"
      horiz-adv-x="256" d="M199.4986666666667 149.248L176 213.248H149.248V224H106.752V213.248H80L56.5013333333333 149.248H32V128H42.752L53.7493333333333 32H202.752L213.248 128H224V149.248H199.4986666666667zM95.4986666666667 192H160.992L176.7466666666667 149.248H79.4986666666667L95.4986666666667 192zM96 64H74.752V106.496H96V64zM138.752 64H117.248V106.496H138.752V64zM181.248 64H160V106.496H181.248V64z" />
    <glyph glyph-name="attachment"
      unicode="&#xEA25;"
      horiz-adv-x="256" d="M203.5946666666667 202.6666666666667H69.8666666666667A67.52 67.52 0 0 1 42.5706666666667 197.0666666666667A71.56266666666666 71.56266666666666 0 0 1 20.3306666666667 182.0586666666667A70.08 70.08 0 0 1 5.4613333333333 159.9573333333334A67.98933333333333 67.98933333333333 0 0 1 0 132.8C0 123.1573333333333 1.8133333333333 114.0586666666667 5.4613333333333 105.504A69.67466666666667 69.67466666666667 0 0 1 20.3306666666667 83.264A69.67466666666667 69.67466666666667 0 0 1 42.5706666666667 68.3946666666666A68.97066666666667 68.97066666666667 0 0 1 69.8773333333333 62.9333333333333H186.1333333333333V86.1333333333333H69.8666666666667C56.9493333333333 86.1333333333333 45.9413333333333 90.6773333333333 36.8426666666667 99.776C27.744 108.8746666666666 23.1893333333333 119.8826666666666 23.1893333333333 132.8C23.1893333333333 145.536 27.744 156.448 36.8426666666667 165.5466666666666C45.9413333333333 174.6453333333333 56.96 179.2 69.8666666666667 179.2H203.5946666666667C211.6053333333334 179.2 218.4746666666667 176.3733333333333 224.2026666666667 170.7306666666667C229.9413333333334 165.0986666666667 232.8 158.272 232.8 150.2613333333334C232.8 142.2613333333334 229.9413333333334 135.392 224.2026666666667 129.664A28.10666666666667 28.10666666666667 0 0 0 203.5946666666667 121.0666666666667H93.0666666666667C89.792 121.0666666666667 87.0186666666667 122.1973333333334 84.7466666666667 124.48A11.328000000000003 11.328000000000003 0 0 0 81.3333333333333 132.8C81.3333333333333 135.8933333333334 82.464 138.5706666666667 84.7466666666667 140.8533333333334C87.0186666666667 143.1253333333334 89.792 144.2666666666667 93.0666666666667 144.2666666666667H186.1333333333333V167.7333333333334H93.0666666666667C83.424 167.7333333333334 75.1893333333333 164.32 68.3626666666667 157.4933333333334C61.536 150.6666666666667 58.1226666666667 142.4426666666667 58.1226666666667 132.8C58.1226666666667 123.1573333333334 61.536 114.9226666666667 68.3626666666667 108.096C75.1893333333333 101.2693333333334 83.424 97.856 93.0666666666667 97.856H203.5946666666667C218.1546666666667 97.856 230.528 102.9546666666667 240.7146666666667 113.152C250.9013333333334 123.3386666666667 256 135.712 256 150.272C256 164.64 250.9013333333334 176.9706666666667 240.7146666666667 187.2426666666667C230.528 197.5253333333333 218.1546666666667 202.6666666666667 203.5946666666667 202.6666666666667z" />
    <glyph glyph-name="arrows-v"
      unicode="&#xEA26;"
      horiz-adv-x="256" d="M138.8586666666667 181.3973333333333H170.8693333333333L127.8506666666667 234.6666666666667L85.3333333333333 181.3973333333333H117.344V74.6026666666667H85.3333333333333L128.096 21.3333333333333L170.8693333333333 74.6026666666667H138.8586666666666z" />
    <glyph glyph-name="bookmark"
      unicode="&#xEA27;"
      horiz-adv-x="256" d="M127.8613333333333 76.608L53.3333333333333 21.3333333333333V234.6666666666667H202.8906666666667V21.3333333333333z" />
    <glyph glyph-name="bubble-o"
      unicode="&#xEA28;"
      horiz-adv-x="256" d="M128 213.44A91.52 91.52 0 0 0 161.0986666666667 207.4346666666667C171.5093333333333 203.4453333333334 180.544 197.9413333333333 188.2026666666667 190.9546666666667A79.76533333333333 79.76533333333333 0 0 0 206.4426666666667 166.4746666666667C210.9333333333334 157.1413333333334 213.184 147.232 213.184 136.7466666666667C213.184 128.2453333333334 211.6906666666667 120 208.6826666666667 112.0106666666667A71.104 71.104 0 0 0 195.4560000000001 90.0373333333334L192.2026666666667 86.2826666666667A82.80533333333332 82.80533333333332 0 0 0 170.9760000000001 69.92C162.6346666666667 65.3333333333333 153.8133333333334 61.4293333333334 144.4906666666667 58.1866666666667C135.1573333333334 54.9333333333333 125.6640000000001 52.3093333333333 116.0106666666667 50.3146666666667A392.64000000000004 392.64000000000004 0 0 0 88.5333333333334 45.568L97.0240000000001 63.0506666666666L80.5333333333334 73.0453333333333C68.7146666666667 80.2026666666666 59.4666666666667 89.408 52.8000000000001 100.6506666666666A69.62133333333334 69.62133333333334 0 0 0 42.8160000000001 136.7466666666667C42.8160000000001 147.232 45.0560000000001 157.1413333333333 49.5573333333334 166.4746666666666A79.76533333333333 79.76533333333333 0 0 0 67.7973333333334 190.9546666666667A84.82133333333333 84.82133333333333 0 0 0 94.9013333333334 207.4346666666666A91.52 91.52 0 0 0 128 213.44zM128 234.6666666666667C113.344 234.6666666666667 99.52 232.128 86.528 227.0506666666667A107.01866666666665 107.01866666666665 0 0 1 52.5546666666667 206.0693333333333A99.54133333333333 99.54133333333333 0 0 1 29.7066666666667 174.8266666666667A88.68266666666666 88.68266666666666 0 0 1 21.3333333333333 136.7466666666667A87.46666666666667 87.46666666666667 0 0 1 24.832 111.8933333333334A97.312 97.312 0 0 1 49.6853333333333 70.1653333333334A102.99733333333334 102.99733333333334 0 0 1 69.2906666666667 54.8053333333334L53.312 21.5786666666667L71.7973333333333 22.4533333333333C84.1173333333333 23.04 98.7733333333333 25.0346666666667 115.7546666666667 28.448C132.7466666666667 31.8613333333333 150.1866666666667 37.28 168.096 44.6933333333333C185.9946666666667 52.096 200.608 62.5493333333333 211.936 76.0426666666667H211.68A97.60000000000001 97.60000000000001 0 0 1 228.544 104.0213333333333A88.10666666666667 88.10666666666667 0 0 1 234.6666666666667 136.7466666666667A88.68266666666666 88.68266666666666 0 0 1 226.2933333333333 174.8373333333333A99.54133333333333 99.54133333333333 0 0 1 203.4453333333334 206.0693333333333A107.01866666666665 107.01866666666665 0 0 1 169.472 227.0506666666667A112.85333333333334 112.85333333333334 0 0 1 128 234.6666666666667z" />
    <glyph glyph-name="beach"
      unicode="&#xEA29;"
      horiz-adv-x="256" d="M217.7173333333333 21.472L234.6666666666667 38.4L158.2826666666667 114.5173333333334L141.3333333333334 97.568L217.7173333333333 21.4613333333334zM192.1706666666667 165.632L226.0586666666667 199.5306666666667A116.01066666666667 116.01066666666667 0 0 1 186.4746666666667 225.7706666666667A123.6053333333333 123.6053333333333 0 0 1 141.3333333333333 234.6666666666667A119.56266666666667 119.56266666666667 0 0 1 96.192 226.0586666666667A116.01066666666667 116.01066666666667 0 0 1 56.6186666666667 199.808A124.29866666666669 124.29866666666669 0 0 0 92.3093333333333 206.1973333333334A131.87199999999999 131.87199999999999 0 0 0 128 202.4426666666667C139.6693333333333 199.5626666666667 150.9653333333333 195.04 161.888 188.832A141.62133333333333 141.62133333333333 0 0 0 192.1706666666667 165.632zM56.32 199.5306666666667C44.6506666666667 187.6693333333333 35.904 174.3893333333334 30.08 159.6693333333333A121.19466666666666 121.19466666666666 0 0 1 21.3333333333333 114.656C21.3333333333333 99.3813333333334 24.2986666666667 84.384 30.2186666666667 69.664A120.74666666666667 120.74666666666667 0 0 1 56.608 29.8026666666667L90.496 63.6906666666667A141.62133333333333 141.62133333333333 0 0 0 67.3066666666667 93.9733333333334A132.13866666666667 132.13866666666667 0 0 0 49.9413333333333 163.84C50.3146666666667 175.9573333333334 52.448 187.8613333333333 56.3413333333333 199.5306666666667zM56.5973333333333 199.5306666666667H56.32A98.02666666666664 98.02666666666664 0 0 1 57.152 171.1893333333333C58.8266666666667 161.1946666666667 61.8346666666667 151.0506666666667 66.1866666666667 140.7786666666667C70.5386666666667 130.496 76.1813333333333 120.2666666666667 83.1253333333333 110.08A215.67999999999995 215.67999999999995 0 0 1 107.4346666666667 80.64L175.2106666666667 148.6933333333333A196.05333333333328 196.05333333333328 0 0 1 146.048 172.864A182.76266666666666 182.76266666666666 0 0 1 115.3493333333333 189.664A134.86933333333334 134.86933333333334 0 0 1 84.9386666666667 198.688A98.02666666666664 98.02666666666664 0 0 1 56.5973333333334 199.5306666666667z" />
    <glyph glyph-name="building"
      unicode="&#xEA2A;"
      horiz-adv-x="256" d="M138.752 224H32V32H96V74.496H117.248V32H224V224H138.752zM74.752 53.248H53.248V74.496H74.752V53.248zM74.752 96H53.248V117.248H74.752V96zM74.752 138.496H53.248V160H74.752V138.496zM74.752 181.248H53.248V202.496H74.752V181.248zM117.248 96H96V117.248H117.248V96zM117.248 138.496H96V160H117.248V138.496zM117.248 181.248H96V202.496H117.248V181.248zM160 53.248H138.752V74.496H160V53.248zM160 96H138.752V117.248H160V96zM160 138.496H138.752V160H160V138.496zM160 181.248H138.752V202.496H160V181.248zM202.752 53.248H181.248V74.496H202.752V53.248zM202.752 96H181.248V117.248H202.752V96zM202.752 138.496H181.248V160H202.752V138.496zM202.752 181.248H181.248V202.496H202.752V181.248z" />
    <glyph glyph-name="bookmark-o"
      unicode="&#xEA2B;"
      horiz-adv-x="256" d="M181.3866666666667 213.408V63.5946666666667L127.8613333333333 103.1146666666667L74.848 63.8506666666667V213.408H181.3866666666667zM202.88 234.6666666666667H53.3333333333333V21.3333333333333L127.8613333333333 76.608L202.8906666666667 21.3333333333333V234.6666666666667z" />
    <glyph glyph-name="arrows-h"
      unicode="&#xEA2C;"
      horiz-adv-x="256" d="M234.6666666666667 128.2026666666667L181.2053333333333 170.6666666666667V138.688H74.7946666666667V170.6666666666667L21.3333333333333 127.9466666666667L74.7946666666667 85.4826666666667V117.4613333333333H181.2053333333333V85.4826666666667z" />
    <glyph glyph-name="cadet-down-circle"
      unicode="&#xEA2D;"
      horiz-adv-x="256" d="M128 234.6666666666667A104 104 0 0 1 86.528 226.2933333333334A107.54133333333334 107.54133333333334 0 0 1 52.5546666666667 203.4453333333334A107.92533333333336 107.92533333333336 0 0 1 29.7066666666667 169.5893333333334A103.072 103.072 0 0 1 21.3333333333333 128.2453333333334C21.3333333333333 113.4186666666667 24.128 99.5626666666667 29.7066666666667 86.656A107.92533333333336 107.92533333333336 0 0 1 52.5546666666667 52.8106666666667C62.2186666666667 43.1466666666667 73.5466666666667 35.5306666666667 86.528 29.952A103.95733333333334 103.95733333333334 0 0 1 128 21.5786666666667A104 104 0 0 1 169.472 29.952A107.54133333333334 107.54133333333334 0 0 1 203.4453333333333 52.8106666666667A107.92533333333336 107.92533333333336 0 0 1 226.2933333333333 86.656C231.872 99.5626666666667 234.6666666666667 113.4293333333334 234.6666666666667 128.256A103.072 103.072 0 0 1 226.2933333333333 169.5893333333334A107.92533333333336 107.92533333333336 0 0 1 203.4453333333333 203.4453333333334A107.54133333333334 107.54133333333334 0 0 1 169.472 226.2933333333333A103.95733333333334 103.95733333333334 0 0 1 128 234.6666666666667zM128 96.2773333333333L85.28 149.4826666666667H170.72L128 96.2773333333333z" />
    <glyph glyph-name="bubble"
      unicode="&#xEA2E;"
      horiz-adv-x="256" d="M234.6666666666667 136.7466666666667A88.68266666666666 88.68266666666666 0 0 1 226.2933333333333 174.8373333333333A99.54133333333333 99.54133333333333 0 0 1 203.4453333333334 206.0693333333333A107.01866666666665 107.01866666666665 0 0 1 169.472 227.0506666666667A112.85333333333334 112.85333333333334 0 0 1 128 234.6666666666667C113.344 234.6666666666667 99.52 232.128 86.528 227.0506666666667A107.01866666666665 107.01866666666665 0 0 1 52.5546666666667 206.0693333333333A99.54133333333333 99.54133333333333 0 0 1 29.7066666666667 174.8266666666667A88.68266666666666 88.68266666666666 0 0 1 21.3333333333333 136.7466666666667A87.46666666666667 87.46666666666667 0 0 1 24.832 111.8933333333334A97.312 97.312 0 0 1 49.6853333333333 70.1653333333334A102.99733333333334 102.99733333333334 0 0 1 69.2906666666667 54.8053333333334L53.312 21.5786666666667L72.0426666666667 22.4533333333333C84.5333333333333 23.04 99.3493333333333 25.0346666666667 116.512 28.448A283.62666666666667 283.62666666666667 0 0 1 168.9706666666667 44.5653333333333C186.784 51.8933333333333 201.1093333333333 62.3786666666667 211.936 76.032H211.68A97.60000000000001 97.60000000000001 0 0 1 228.544 104.0213333333334A88.10666666666667 88.10666666666667 0 0 1 234.6666666666667 136.7466666666667z" />
    <glyph glyph-name="cadet-down-square-o"
      unicode="&#xEA2F;"
      horiz-adv-x="256" d="M170.752 149.248L128 96L85.248 149.248H170.752zM213.248 32H42.752A10.378666666666666 10.378666666666666 0 0 0 35.1253333333333 35.1253333333333A10.090666666666667 10.090666666666667 0 0 0 32 42.496V213.248C32 216.2453333333334 33.0453333333333 218.7946666666667 35.1253333333333 220.8746666666667A10.378666666666666 10.378666666666666 0 0 0 42.752 224H213.248C216.2453333333333 224 218.7946666666667 222.9546666666667 220.8746666666667 220.8746666666667A10.378666666666666 10.378666666666666 0 0 0 224 213.248V42.496A10.090666666666667 10.090666666666667 0 0 0 220.8746666666667 35.1253333333334A10.378666666666666 10.378666666666666 0 0 0 213.248 32zM53.248 53.248H202.752V202.496H53.248V53.248z" />
    <glyph glyph-name="bus"
      unicode="&#xEA30;"
      horiz-adv-x="256" d="M187.968 234.6666666666667H68.032C58.0906666666667 234.6666666666667 49.6 231.104 42.56 223.968C35.52 216.832 32 208.3946666666667 32 198.6346666666667V54.496C32 51.1146666666667 33.1733333333333 48.2453333333334 35.52 45.9093333333333C37.8666666666667 43.5626666666667 40.64 42.3893333333333 43.8293333333333 42.3893333333333V30.2826666666667C43.8293333333333 27.0826666666667 45.0026666666667 24.32 47.3493333333333 21.9733333333333C49.696 19.6266666666667 52.5546666666667 18.4533333333333 55.9253333333333 18.4533333333333H68.032C71.232 18.4533333333333 73.9946666666667 19.6266666666667 76.3413333333333 21.9733333333333C78.688 24.32 79.8613333333333 27.0933333333333 79.8613333333333 30.2826666666667V42.3893333333333H176.1386666666667V30.2826666666667C176.1386666666667 27.0826666666667 177.312 24.32 179.6586666666667 21.9733333333333C182.0053333333334 19.6266666666667 184.7786666666667 18.4533333333333 187.968 18.4533333333333H200.0746666666667C203.4453333333334 18.4533333333333 206.3146666666667 19.6266666666667 208.6613333333334 21.9733333333333C211.008 24.32 212.1813333333334 27.0933333333333 212.1813333333334 30.2826666666667V42.3893333333333C215.3706666666667 42.3893333333333 218.1333333333334 43.5626666666667 220.48 45.9093333333333C222.8266666666667 48.256 224 51.1146666666667 224 54.496V198.6346666666667C224 208.3946666666667 220.48 216.832 213.44 223.968C206.4 231.104 197.9093333333333 234.6666666666667 187.968 234.6666666666667zM73.9413333333333 66.3146666666667A17.173333333333332 17.173333333333332 0 0 0 61.1413333333333 71.6586666666667A17.546666666666667 17.546666666666667 0 0 0 55.9253333333333 84.3306666666667C55.9253333333333 89.3973333333333 57.664 93.6746666666666 61.1413333333333 97.1413333333333A17.407999999999998 17.407999999999998 0 0 0 73.9413333333333 102.3466666666666C79.0186666666667 102.3466666666666 83.2853333333333 100.6186666666666 86.752 97.1413333333333C90.2293333333333 93.6746666666666 91.968 89.3973333333333 91.968 84.3413333333333C91.968 79.456 90.2293333333333 75.232 86.752 71.6586666666666A17.173333333333332 17.173333333333332 0 0 0 73.952 66.3146666666666zM182.048 66.3146666666667A17.173333333333332 17.173333333333332 0 0 0 169.248 71.6586666666667A17.546666666666667 17.546666666666667 0 0 0 164.032 84.3306666666667C164.032 89.3973333333333 165.7706666666667 93.6746666666666 169.248 97.1413333333333A17.407999999999998 17.407999999999998 0 0 0 182.048 102.3466666666666C187.1253333333334 102.3466666666666 191.392 100.6186666666666 194.8586666666667 97.1413333333333C198.336 93.6746666666666 200.0746666666667 89.3973333333333 200.0746666666667 84.3413333333333C200.0746666666667 79.456 198.336 75.232 194.8586666666667 71.6586666666666A17.173333333333332 17.173333333333332 0 0 0 182.0586666666667 66.3146666666666zM200.0746666666667 126.56H55.9253333333333V198.6346666666667H200.0746666666667V126.56z" />
    <glyph glyph-name="cadet-down"
      unicode="&#xEA31;"
      horiz-adv-x="256" d="M21.3333333333333 202.6666666666667L128 53.536L234.6666666666667 202.6666666666667z" />
    <glyph glyph-name="cadet-down-small"
      unicode="&#xEA32;"
      horiz-adv-x="256" d="M192 170.6666666666667L128 85.4186666666667L64 170.6666666666667z" />
    <glyph glyph-name="cadet-down-circle-o"
      unicode="&#xEA33;"
      horiz-adv-x="256" d="M85.28 149.4826666666667L128 96.2773333333333L170.72 149.4826666666667H85.28zM128 213.44C139.8293333333333 213.44 150.9013333333333 211.2 161.2266666666667 206.6986666666667A88.23466666666667 88.23466666666667 0 0 0 188.32 188.4586666666667A83.57333333333334 83.57333333333334 0 0 0 206.56 161.3653333333334C210.976 150.9546666666667 213.1733333333334 139.9253333333334 213.1733333333334 128.256A83.63733333333333 83.63733333333333 0 0 0 206.56 95.04A85.38666666666667 85.38666666666667 0 0 0 188.32 67.936A87.14666666666666 87.14666666666666 0 0 0 161.2266666666667 49.568A82.29333333333332 82.29333333333332 0 0 0 128 42.8266666666667A82.29333333333332 82.29333333333332 0 0 0 94.7733333333333 49.568A87.14666666666666 87.14666666666666 0 0 0 67.68 67.936A85.38666666666667 85.38666666666667 0 0 0 49.44 95.0293333333334A83.62666666666667 83.62666666666667 0 0 0 42.8266666666667 128.256C42.8266666666667 139.9146666666667 45.024 150.9546666666667 49.44 161.3546666666667A83.57333333333334 83.57333333333334 0 0 0 67.68 188.4586666666667A88.23466666666667 88.23466666666667 0 0 0 94.7733333333333 206.6986666666667A82.29333333333332 82.29333333333332 0 0 0 128 213.4293333333333zM128 234.6666666666667A104 104 0 0 1 86.528 226.2933333333334A107.54133333333334 107.54133333333334 0 0 1 52.5546666666667 203.4453333333334A107.92533333333336 107.92533333333336 0 0 1 29.7066666666667 169.5893333333334A103.072 103.072 0 0 1 21.3333333333333 128.2453333333334C21.3333333333333 113.4186666666667 24.128 99.5626666666667 29.7066666666667 86.656A107.92533333333336 107.92533333333336 0 0 1 52.5546666666667 52.8106666666667C62.2186666666667 43.1466666666667 73.5466666666667 35.5306666666667 86.528 29.952A103.95733333333334 103.95733333333334 0 0 1 128 21.5786666666667A104 104 0 0 1 169.472 29.952A107.54133333333334 107.54133333333334 0 0 1 203.4453333333333 52.8106666666667A107.92533333333336 107.92533333333336 0 0 1 226.2933333333333 86.656C231.872 99.5626666666667 234.6666666666667 113.4293333333334 234.6666666666667 128.256A103.072 103.072 0 0 1 226.2933333333333 169.5893333333334A107.92533333333336 107.92533333333336 0 0 1 203.4453333333333 203.4453333333334A107.54133333333334 107.54133333333334 0 0 1 169.472 226.2933333333333A103.95733333333334 103.95733333333334 0 0 1 128 234.6666666666667z" />
    <glyph glyph-name="cadet-up-small"
      unicode="&#xEA34;"
      horiz-adv-x="256" d="M192 85.4186666666667L128 170.6666666666667L64 85.4186666666667z" />
    <glyph glyph-name="cadet-up-square-o"
      unicode="&#xEA35;"
      horiz-adv-x="256" d="M85.248 106.496L128 160L170.752 106.496H85.248zM213.248 32H42.752A10.378666666666666 10.378666666666666 0 0 0 35.1253333333333 35.1253333333333A10.090666666666667 10.090666666666667 0 0 0 32 42.496V213.248C32 216.2453333333334 33.0453333333333 218.7946666666667 35.1253333333333 220.8746666666667A10.378666666666666 10.378666666666666 0 0 0 42.752 224H213.248C216.2453333333333 224 218.7946666666667 222.9546666666667 220.8746666666667 220.8746666666667A10.378666666666666 10.378666666666666 0 0 0 224 213.248V42.496A10.090666666666667 10.090666666666667 0 0 0 220.8746666666667 35.1253333333334A10.378666666666666 10.378666666666666 0 0 0 213.248 32zM53.248 53.248H202.752V202.496H53.248V53.248z" />
    <glyph glyph-name="cadet-up-square"
      unicode="&#xEA36;"
      horiz-adv-x="256" d="M213.248 224H42.752A10.378666666666666 10.378666666666666 0 0 1 35.1253333333333 220.8746666666667A10.378666666666666 10.378666666666666 0 0 1 32 213.248V42.496C32 39.6693333333334 33.0453333333333 37.2053333333334 35.1253333333333 35.1253333333334A10.378666666666666 10.378666666666666 0 0 1 42.752 32H213.248C216.2453333333333 32 218.7946666666667 33.0453333333334 220.8746666666667 35.1253333333334A10.090666666666667 10.090666666666667 0 0 1 224 42.496V213.248A10.378666666666666 10.378666666666666 0 0 1 220.8746666666667 220.8746666666667A10.378666666666666 10.378666666666666 0 0 1 213.248 224zM170.752 106.496H85.248L128 160L170.752 106.496z" />
    <glyph glyph-name="cadet-up"
      unicode="&#xEA37;"
      horiz-adv-x="256" d="M234.6666666666667 53.536L128 202.6666666666667L21.3333333333333 53.536z" />
    <glyph glyph-name="cafe"
      unicode="&#xEA38;"
      horiz-adv-x="256" d="M32 64.8213333333334H212.352V43.4346666666667H32V64.8213333333334zM191.2 213.3333333333334C202.976 213.3333333333334 213.0133333333333 209.184 221.3013333333333 200.896C229.6 192.608 233.7386666666667 182.5706666666667 233.7386666666667 170.7946666666667C233.7386666666667 159.1893333333333 229.6 149.2373333333334 221.3013333333333 140.9493333333334C213.0133333333333 132.6506666666667 202.976 128.512 191.2 128.512V117.8133333333334C191.2 106.1973333333334 187.0613333333333 96.2133333333334 178.7626666666667 87.84C170.4746666666667 79.456 160.4373333333333 75.2746666666667 148.6613333333333 75.2746666666667H84.9813333333333C73.376 75.2746666666667 63.4346666666667 79.456 55.136 87.84C46.8373333333333 96.2133333333334 42.6986666666667 106.1973333333334 42.6986666666667 117.8133333333334V202.6346666666667C42.6986666666667 205.6213333333333 43.7333333333333 208.1493333333334 45.8026666666667 210.2186666666667A10.026666666666666 10.026666666666666 0 0 0 53.1413333333333 213.3333333333334H191.2zM191.2 149.6533333333333A20.373333333333335 20.373333333333335 0 0 1 206.1333333333333 155.872C210.272 160.0213333333333 212.352 164.992 212.352 170.8053333333334C212.352 176.768 210.272 181.824 206.1333333333333 185.9733333333333A20.352 20.352 0 0 1 191.2 192.192V149.6533333333333z" />
    <glyph glyph-name="cadet-up-circle-o"
      unicode="&#xEA39;"
      horiz-adv-x="256" d="M170.72 106.7733333333333L128 160.2133333333334L85.28 106.7733333333333H170.72zM128 213.44C139.8293333333333 213.44 150.9013333333333 211.1893333333333 161.2266666666667 206.688A88.23466666666667 88.23466666666667 0 0 0 188.32 188.448A83.57333333333334 83.57333333333334 0 0 0 206.56 161.3546666666667C210.976 150.944 213.1733333333334 139.9146666666667 213.1733333333334 128.2453333333333A83.63733333333333 83.63733333333333 0 0 0 206.56 95.0293333333333A85.38666666666667 85.38666666666667 0 0 0 188.32 67.9253333333334A87.14666666666666 87.14666666666666 0 0 0 161.2266666666667 49.5573333333334A82.29333333333332 82.29333333333332 0 0 0 128 42.816A82.29333333333332 82.29333333333332 0 0 0 94.7733333333333 49.5573333333334A87.14666666666666 87.14666666666666 0 0 0 67.68 67.9253333333334A85.38666666666667 85.38666666666667 0 0 0 49.44 95.0186666666667A83.62666666666667 83.62666666666667 0 0 0 42.8266666666667 128.2453333333334C42.8266666666667 139.904 45.024 150.944 49.44 161.344A83.57333333333334 83.57333333333334 0 0 0 67.68 188.448A88.23466666666667 88.23466666666667 0 0 0 94.7733333333333 206.688A82.29333333333332 82.29333333333332 0 0 0 128 213.4293333333333zM128 234.6666666666667A104 104 0 0 1 86.528 226.2933333333334A107.54133333333334 107.54133333333334 0 0 1 52.5546666666667 203.4453333333334A107.92533333333336 107.92533333333336 0 0 1 29.7066666666667 169.5893333333334A103.072 103.072 0 0 1 21.3333333333333 128.2453333333334C21.3333333333333 113.4186666666667 24.128 99.5626666666667 29.7066666666667 86.656A107.92533333333336 107.92533333333336 0 0 1 52.5546666666667 52.8106666666667C62.2186666666667 43.1466666666667 73.5466666666667 35.5306666666667 86.528 29.952A103.95733333333334 103.95733333333334 0 0 1 128 21.5786666666667A104 104 0 0 1 169.472 29.952A107.54133333333334 107.54133333333334 0 0 1 203.4453333333333 52.8106666666667A107.92533333333336 107.92533333333336 0 0 1 226.2933333333333 86.656C231.872 99.5626666666667 234.6666666666667 113.4293333333334 234.6666666666667 128.256A103.072 103.072 0 0 1 226.2933333333333 169.5893333333334A107.92533333333336 107.92533333333336 0 0 1 203.4453333333333 203.4453333333334A107.54133333333334 107.54133333333334 0 0 1 169.472 226.2933333333333A103.95733333333334 103.95733333333334 0 0 1 128 234.6666666666667z" />
    <glyph glyph-name="calendar-del"
      unicode="&#xEA3A;"
      horiz-adv-x="256" d="M96 89.4933333333333L111.2533333333333 74.496L128 91.4986666666667L145.0026666666667 74.496L160 89.504L142.9973333333333 106.496L160 123.4986666666667L145.0026666666667 138.496L128 121.504L110.9973333333333 138.496L96 123.4986666666667L113.0026666666667 106.496L96 89.504zM192 213.248V224H170.752V213.248H85.248V224H64V213.248H32V32H224V213.248H192zM202.752 53.248H53.248V160H202.752V53.248z" />
    <glyph glyph-name="calendar-list"
      unicode="&#xEA3B;"
      horiz-adv-x="256" d="M192 213.248V224H170.752V213.248H85.248V224H64V213.248H32V32H224V213.248H192zM202.752 53.248H53.248V160H202.752V53.248zM74.752 128H181.248V149.248H74.752V128zM74.752 96H181.248V117.248H74.752V96zM74.752 64H181.248V85.248H74.752V64z" />
    <glyph glyph-name="calendar-min"
      unicode="&#xEA3C;"
      horiz-adv-x="256" d="M192 213.248V224H170.752V213.248H85.248V224H64V213.248H32V32H224V213.248H192zM202.752 53.248H53.248V160H202.752V53.248zM96 96H160V117.248H96V96z" />
    <glyph glyph-name="calendar-plus"
      unicode="&#xEA3D;"
      horiz-adv-x="256" d="M192 213.248V224H170.752V213.248H85.248V224H64V213.248H32V32H224V213.248H192zM53.248 53.248V160H202.752V53.248H53.248zM138.752 138.496H117.248V117.248H96V96H117.248V74.496H138.752V96H160V117.248H138.752V138.496z" />
    <glyph glyph-name="calendar"
      unicode="&#xEA3E;"
      horiz-adv-x="256" d="M192 213.248V224H170.752V213.248H85.248V224H64V213.248H32V32H224V213.248H192zM53.248 53.248V160H202.752V53.248H53.248zM140 116V68H188V116H140z" />
    <glyph glyph-name="call-off"
      unicode="&#xEA3F;"
      horiz-adv-x="256" d="M83.4986666666667 119.7546666666667A217.49333333333334 217.49333333333334 0 0 0 70.496 140.7466666666667L94.0053333333333 164.2453333333334C95.4986666666667 165.7493333333334 96.5013333333333 167.456 96.992 169.3653333333334A10.133333333333333 10.133333333333333 0 0 1 96.7466666666667 175.2533333333333A115.22133333333333 115.22133333333333 0 0 0 92.2453333333333 193.7493333333334A124.86399999999999 124.86399999999999 0 0 0 90.752 213.248A10.378666666666666 10.378666666666666 0 0 1 87.6266666666667 220.8746666666667A10.378666666666666 10.378666666666666 0 0 1 80 224H42.752A10.378666666666666 10.378666666666666 0 0 1 35.1253333333333 220.8746666666667A10.378666666666666 10.378666666666666 0 0 1 32 213.248C32 203.0826666666667 32.832 193.12 34.496 183.3813333333334C36.1706666666667 173.6213333333333 38.5493333333333 164.1706666666667 41.6213333333333 155.008C44.7146666666667 145.8346666666667 48.5013333333333 137.0453333333334 53.0026666666667 128.6293333333334C57.504 120.2026666666667 62.5813333333333 112.1706666666667 68.256 104.5013333333334L83.5093333333333 119.7546666666667zM213.248 90.496C206.7413333333333 90.496 200.288 90.9973333333333 193.8773333333333 92A114.58133333333335 114.58133333333335 0 0 0 175.2533333333333 96.5013333333333A10.346666666666664 10.346666666666664 0 0 1 169.4933333333334 96.8746666666667A10.250666666666666 10.250666666666666 0 0 1 164.2453333333334 93.9946666666667L140.992 70.496A138.272 138.272 0 0 0 123.7546666666667 80.7466666666666A189.26933333333332 189.26933333333332 0 0 0 108 93.0026666666666L224 208.7466666666667L209.0026666666667 224L32 46.9973333333333L46.9973333333333 32L93.0026666666667 77.76C101.0026666666667 70.5813333333333 109.5786666666667 64.1706666666667 118.752 58.496C127.9253333333333 52.8426666666666 137.5786666666666 48.0426666666667 147.7546666666667 44.128A182.68800000000002 182.68800000000002 0 0 1 213.248 32C216.2453333333333 32 218.7946666666667 33.0453333333333 220.8746666666667 35.1253333333333A10.090666666666667 10.090666666666667 0 0 1 224 42.496V79.7546666666667A10.378666666666666 10.378666666666666 0 0 1 220.8746666666667 87.3706666666667A10.378666666666666 10.378666666666666 0 0 1 213.248 90.496z" />
    <glyph glyph-name="call"
      unicode="&#xEA40;"
      horiz-adv-x="256" d="M70.5066666666667 140.7466666666667C74.336 133.248 78.752 126.08 83.7546666666667 119.2533333333333A163.73333333333332 163.73333333333332 0 0 1 119.2533333333333 83.7546666666667A151.46666666666664 151.46666666666664 0 0 1 141.0026666666667 70.496L164.256 93.9946666666667A10.176 10.176 0 0 0 169.504 96.8746666666667A10.346666666666664 10.346666666666664 0 0 0 175.2533333333333 96.5013333333333C181.248 94.496 187.456 93.0026666666666 193.8773333333333 92C200.288 90.9973333333333 206.752 90.5066666666667 213.248 90.5066666666667C216.2453333333333 90.5066666666667 218.7946666666667 89.4613333333333 220.8746666666667 87.3706666666667A10.378666666666666 10.378666666666666 0 0 0 224 79.7546666666667V42.496A10.090666666666667 10.090666666666667 0 0 0 220.8746666666667 35.1253333333333A10.378666666666666 10.378666666666666 0 0 0 213.248 32C188.2453333333333 32 164.7466666666667 36.7466666666666 142.7413333333333 46.2506666666666A183.50933333333333 183.50933333333333 0 0 0 85.12 85.12A183.50933333333333 183.50933333333333 0 0 0 46.2506666666667 142.752C36.7573333333333 164.7466666666667 32 188.2453333333334 32 213.2586666666667C32 216.2453333333334 33.0453333333333 218.7946666666667 35.1253333333333 220.8746666666667A10.378666666666666 10.378666666666666 0 0 0 42.752 224H80C82.9973333333333 224 85.5466666666667 222.9546666666667 87.6266666666667 220.8746666666667A10.378666666666666 10.378666666666666 0 0 0 90.752 213.248C90.752 206.5813333333333 91.2533333333333 200.0853333333333 92.2453333333333 193.7493333333334C93.248 187.4133333333334 94.752 181.248 96.7466666666667 175.2533333333333A10.133333333333333 10.133333333333333 0 0 0 97.0026666666667 169.376C96.5013333333333 167.456 95.5093333333333 165.7493333333334 94.0053333333333 164.256L70.496 140.7466666666667z" />
    <glyph glyph-name="camera-o"
      unicode="&#xEA41;"
      horiz-adv-x="256" d="M223.9253333333333 32.1493333333333H32.0746666666667A10.367999999999999 10.367999999999999 0 0 0 24.4586666666667 35.2746666666667A10.08 10.08 0 0 0 21.3333333333333 42.6346666666667V181.2906666666667C21.3333333333333 184.288 22.3786666666667 186.8373333333333 24.4586666666667 188.9173333333334A10.367999999999999 10.367999999999999 0 0 0 32.0746666666667 192.032H73.5466666666667L86.528 218.016A9.834666666666669 9.834666666666669 0 0 0 90.4 222.3893333333334A10.495999999999999 10.495999999999999 0 0 0 96.0213333333333 224H159.9786666666667A10.453333333333333 10.453333333333333 0 0 0 165.6 222.3786666666667A9.834666666666669 9.834666666666669 0 0 0 169.472 218.0053333333334L182.4533333333333 192.0213333333333H223.9253333333333A10.346666666666664 10.346666666666664 0 0 0 231.5413333333333 188.9066666666667A10.367999999999999 10.367999999999999 0 0 0 234.6666666666667 181.28V42.6453333333334A10.08 10.08 0 0 0 231.5413333333333 35.2746666666667A10.367999999999999 10.367999999999999 0 0 0 223.9253333333333 32.1493333333333zM42.816 53.376H213.184V170.5493333333334H175.9573333333333A10.495999999999999 10.495999999999999 0 0 0 170.3466666666666 172.1813333333334A9.834666666666669 9.834666666666669 0 0 0 166.4746666666666 176.5546666666667L153.4826666666666 202.528H102.5066666666667L89.5253333333333 176.5333333333333A9.834666666666669 9.834666666666669 0 0 0 85.6533333333333 172.16A10.495999999999999 10.495999999999999 0 0 0 80.0426666666667 170.5386666666667H42.816V53.3866666666667zM128 74.624C116.1706666666667 74.624 106.1013333333333 78.784 97.7706666666667 87.1146666666667C89.4506666666667 95.4346666666667 85.2906666666667 105.5146666666667 85.2906666666667 117.344S89.4506666666667 139.2426666666667 97.7706666666667 147.5733333333333C106.0906666666667 155.8933333333333 116.1706666666667 160.0533333333334 128 160.0533333333334S149.8986666666667 155.8933333333333 158.2293333333333 147.5733333333333C166.5493333333333 139.2533333333333 170.7093333333333 129.1733333333333 170.7093333333333 117.344S166.5493333333333 95.4453333333333 158.2293333333333 87.1146666666667C149.9093333333333 78.7946666666667 139.8293333333333 74.6346666666667 128 74.6346666666667zM128 138.5813333333333C122.176 138.5813333333333 117.1733333333333 136.4906666666667 113.0133333333333 132.3306666666667C108.8533333333333 128.1706666666667 106.7626666666667 123.168 106.7626666666667 117.344S108.8533333333333 106.5173333333333 113.0133333333333 102.3573333333333C117.1733333333333 98.1973333333333 122.176 96.1066666666667 128 96.1066666666667S138.8266666666667 98.1973333333333 142.9866666666667 102.3573333333333C147.1466666666667 106.5173333333333 149.2373333333334 111.52 149.2373333333334 117.344S147.1466666666667 128.1706666666667 142.9866666666667 132.3306666666667A20.43733333333333 20.43733333333333 0 0 1 128 138.5706666666667z" />
    <glyph glyph-name="camera"
      unicode="&#xEA42;"
      horiz-adv-x="256" d="M223.9253333333333 192.0213333333333H177.2053333333333L164.224 218.0053333333334A11.914666666666667 11.914666666666667 0 0 1 160.224 222.3786666666667A9.877333333333334 9.877333333333334 0 0 1 154.7306666666666 224H101.2693333333333A9.834666666666669 9.834666666666669 0 0 1 95.776 222.3786666666667A11.914666666666667 11.914666666666667 0 0 1 91.776 218.0053333333334L78.784 192.0213333333333H32.0746666666667A10.367999999999999 10.367999999999999 0 0 1 24.4586666666667 188.9066666666667A10.367999999999999 10.367999999999999 0 0 1 21.3333333333333 181.28V42.6453333333334C21.3333333333333 39.808 22.3786666666667 37.3546666666667 24.4586666666667 35.2746666666667A10.367999999999999 10.367999999999999 0 0 1 32.0746666666667 32.1493333333333H223.9253333333333A10.346666666666664 10.346666666666664 0 0 1 231.5413333333334 35.2746666666667A10.08 10.08 0 0 1 234.6666666666667 42.6346666666667V181.2906666666667A10.367999999999999 10.367999999999999 0 0 1 231.5413333333334 188.9173333333334A10.367999999999999 10.367999999999999 0 0 1 223.9253333333334 192.032zM128 64.128A52.66133333333334 52.66133333333334 0 0 0 107.264 68.2453333333334A52.906666666666666 52.906666666666666 0 0 0 90.2826666666667 79.616A52.906666666666666 52.906666666666666 0 0 0 78.912 96.5973333333334A52.66133333333334 52.66133333333334 0 0 0 74.7946666666667 117.3333333333334C74.7946666666667 124.6613333333334 76.1706666666667 131.5733333333333 78.912 138.0693333333333A52.906666666666666 52.906666666666666 0 0 0 90.2826666666667 155.0506666666667A52.906666666666666 52.906666666666666 0 0 0 107.264 166.4213333333333A52.66133333333334 52.66133333333334 0 0 0 128 170.5386666666667C135.328 170.5386666666667 142.24 169.1626666666667 148.736 166.4213333333333A52.906666666666666 52.906666666666666 0 0 0 165.7173333333333 155.0506666666667A52.906666666666666 52.906666666666666 0 0 0 177.088 138.0693333333333C179.8293333333333 131.5626666666667 181.2053333333333 124.6613333333334 181.2053333333333 117.3333333333334S179.8293333333333 103.0933333333333 177.088 96.5973333333334A52.906666666666666 52.906666666666666 0 0 0 165.7173333333333 79.616A52.906666666666666 52.906666666666666 0 0 0 148.736 68.2453333333334A52.66133333333334 52.66133333333334 0 0 0 128 64.128zM128 149.312A30.82666666666666 30.82666666666666 0 0 1 105.3866666666667 139.936A30.80533333333333 30.80533333333333 0 0 1 96.032 117.3333333333334C96.032 108.512 99.1573333333333 100.9706666666667 105.408 94.72A30.80533333333333 30.80533333333333 0 0 1 128.0106666666667 85.3546666666667A30.82666666666666 30.82666666666666 0 0 1 150.624 94.7306666666667A30.80533333333333 30.80533333333333 0 0 1 159.968 117.3333333333334A30.82666666666666 30.82666666666666 0 0 1 150.592 139.9466666666667A30.80533333333333 30.80533333333333 0 0 1 128 149.3013333333333z" />
    <glyph glyph-name="card-amex"
      unicode="&#xEA43;"
      horiz-adv-x="256" d="M13.248 151.8293333333334H22.9973333333333L17.9946666666667 163.84L13.248 151.84zM82.2506666666667 93.3333333333333L90.496 102.08L82.752 110.8266666666667H64.5013333333333V105.3333333333333H80.2453333333333V99.328H64.5013333333333V93.3333333333333H82.24zM99.744 102.08L110.752 89.8346666666667V113.8346666666667L99.7546666666667 102.08zM131.744 107.328C131.744 108.5013333333334 131.3706666666667 109.376 130.624 109.9626666666667C129.8773333333333 110.5386666666667 128.7466666666667 110.8373333333333 127.2533333333333 110.8373333333333H118.0053333333333V103.328H127.2533333333333C128.7466666666667 103.328 129.8773333333333 103.6693333333333 130.624 104.3306666666667C131.3706666666667 105.0026666666667 131.7546666666667 105.9946666666667 131.7546666666667 107.328zM164 107.584C164 108.7573333333334 163.5733333333333 109.5786666666667 162.752 110.08A6.826666666666667 6.826666666666667 0 0 1 159.2533333333333 110.8266666666667H150.0053333333334V104.0853333333334H158.9973333333333C160.672 104.0853333333334 161.92 104.3733333333334 162.752 104.96C163.584 105.5466666666667 164 106.4213333333333 164 107.584zM133.0026666666667 159.328C133.0026666666667 160.5013333333333 132.6293333333333 161.3333333333334 131.872 161.8346666666667C131.1253333333334 162.336 129.92 162.5813333333333 128.2453333333334 162.5813333333333H119.2533333333334V156.0746666666667H128.2453333333334C129.7493333333334 156.0746666666667 130.912 156.3733333333333 131.7546666666667 156.96A2.752 2.752 0 0 1 133.0026666666667 159.3386666666667zM184 151.8293333333334H194.0053333333334L188.992 163.8293333333334L184 151.8293333333334zM77.76 169.088V138.8373333333333H70.2506666666667V162.336L60 138.8373333333333H53.4933333333333L42.9973333333333 162.336V138.8373333333333H28.4906666666667L25.7493333333333 145.5786666666667H10.752L8 138.8373333333333H0L13.0026666666667 169.088H23.7546666666667L36 140.3306666666667V169.088H47.7546666666667L57.0026666666667 148.5866666666667L65.7493333333333 169.088H77.76zM139.4986666666667 107.328C139.4986666666667 106.496 139.456 105.7493333333333 139.3706666666667 105.088A4 4 0 0 0 138.752 103.328A11.456000000000001 11.456000000000001 0 0 0 138.1226666666667 101.8346666666667A4.757333333333333 4.757333333333333 0 0 0 137.248 100.5866666666667A13.632 13.632 0 0 0 136.128 99.584A4.426666666666667 4.426666666666667 0 0 0 134.7413333333334 98.8373333333333A6.314666666666666 6.314666666666666 0 0 0 133.248 98.0906666666667A9.706666666666669 9.706666666666669 0 0 1 132 97.5786666666667A9.28 9.28 0 0 0 130.3786666666667 97.2053333333333A13.280000000000001 13.280000000000001 0 0 0 128.5013333333334 97.088H117.9946666666667V87.0826666666667H104L94.9973333333333 97.088L85.9946666666667 87.0826666666667H57.5146666666667V117.088H86.2613333333333L95.264 107.328L104.256 117.088H127.264C131.424 117.088 134.5173333333334 116.2453333333333 136.512 114.5813333333333C138.5066666666667 112.9173333333334 139.5093333333333 110.496 139.5093333333333 107.328zM106.9973333333333 145.088V138.8373333333333H82.9973333333333V169.088H106.9973333333333V162.5813333333334H90.2506666666667V157.3333333333334H106.752V151.0826666666667H90.24V145.088H106.9866666666667zM256 83.0826666666667V57.5893333333333C256 55.584 255.6266666666667 53.7066666666667 254.88 51.9573333333333C254.1333333333334 50.208 253.088 48.5866666666667 251.7546666666667 47.0826666666667C250.2506666666667 45.5893333333333 248.6613333333333 44.4586666666667 246.9973333333334 43.712C245.3333333333334 42.9653333333334 243.4133333333334 42.5813333333334 241.248 42.5813333333334H14.752C12.5866666666667 42.5813333333334 10.6666666666667 42.9546666666667 8.992 43.712A16.106666666666666 16.106666666666666 0 0 0 4.2453333333333 47.0826666666667A17.973333333333336 17.973333333333336 0 0 0 1.12 51.9573333333333A14.12266666666667 14.12266666666667 0 0 0 0 57.5786666666667V132.832H12.2453333333333L14.9973333333333 139.584H21.248L24 132.832H48.2453333333333V138.08L50.2506666666667 132.832H62.9973333333333L65.0026666666667 138.08V132.832H125.248V143.8293333333333L126.2506666666667 144.0853333333333C126.752 144.0853333333333 127.0826666666667 143.9573333333334 127.2533333333333 143.712A2.8053333333333335 2.8053333333333335 0 0 0 127.4986666666667 142.3253333333333V132.832H158.496V135.3386666666667A63.82933333333333 63.82933333333333 0 0 1 164.5013333333334 133.3333333333333C165.6746666666667 133.1626666666667 166.7413333333334 133.0453333333333 167.7546666666667 132.96C168.7466666666667 132.8746666666667 169.6746666666667 132.832 170.496 132.832C171.168 132.6613333333333 172.0853333333334 132.6186666666666 173.248 132.704C174.4213333333334 132.7893333333333 175.8293333333334 132.832 177.504 132.832H183.2533333333334L186.0053333333334 139.584H192.2453333333334L194.9973333333334 132.832H220.2453333333334V139.3386666666667L224.0000000000001 132.832H244.2453333333334V174.8373333333333H224.2453333333334V170.08L221.2586666666667 174.8373333333333H200.7466666666667V170.08L198.2506666666667 174.8373333333333H170.496C168 174.8373333333333 165.7493333333333 174.624 163.7546666666667 174.208A18.56 18.56 0 0 1 158.496 172.3306666666667V174.8373333333333H139.2533333333333V172.3306666666667A7.786666666666666 7.786666666666666 0 0 1 136 174.208A16 16 0 0 1 131.2533333333333 174.8373333333333H61.4933333333333L56.7466666666667 164.0853333333333L52 174.8266666666667H29.9946666666667V170.0693333333333L27.4986666666667 174.8266666666667H8.7466666666667L0 155.0826666666667V198.336C0 200.5013333333334 0.3733333333333 202.4533333333334 1.12 204.2026666666667A15.573333333333332 15.573333333333332 0 0 0 9.12 212.2026666666667C10.88 212.9493333333334 12.7466666666667 213.3333333333334 14.752 213.3333333333334H241.248C243.4133333333334 213.3333333333334 245.3333333333334 212.96 247.008 212.2133333333334C248.672 211.4666666666667 250.2506666666667 210.336 251.7546666666667 208.832C253.248 207.4986666666667 254.336 205.952 254.9973333333334 204.2133333333334C255.6693333333334 202.4533333333334 256 200.5013333333334 256 198.336V123.0826666666667H242.752C240.7466666666667 123.0826666666667 238.9973333333334 122.8693333333334 237.504 122.4533333333334A9.920000000000002 9.920000000000002 0 0 1 233.7493333333334 120.5866666666667V123.0826666666667H213.9946666666667C212 123.0826666666667 210.2506666666667 122.8693333333334 208.7466666666667 122.4533333333334A7.786666666666666 7.786666666666666 0 0 1 205.248 120.5866666666667V123.0826666666667H170.2506666666667V120.5866666666667A12.490666666666668 12.490666666666668 0 0 1 166.1226666666667 122.4533333333334A22.29333333333333 22.29333333333333 0 0 1 160.5013333333333 123.0933333333333H137.248V120.5866666666667A7.925333333333333 7.925333333333333 0 0 1 133.504 122.4533333333334A26.293333333333333 26.293333333333333 0 0 1 127.2533333333333 123.0933333333333H101.248L95.2533333333333 116.5866666666667L89.7493333333333 123.0933333333333H50.9973333333333V81.088H89.0026666666667L94.9973333333333 87.584L101.0026666666667 81.0773333333333H124.256V91.0826666666667H126.752A35.72266666666667 35.72266666666667 0 0 1 136.7466666666667 92.3306666666667V81.088H156V92.0746666666667H157.6213333333333C157.8773333333333 92.0746666666667 158.0053333333333 92 158.0053333333333 91.8293333333334L158.1226666666667 91.584C158.208 91.4133333333334 158.2506666666666 91.1573333333334 158.2506666666666 90.8373333333334V81.088H217.0026666666667C219.168 81.088 221.0453333333333 81.3013333333334 222.624 81.7066666666667A10.24 10.24 0 0 1 226.752 83.84V81.088H245.504C247.6693333333333 81.088 249.6213333333333 81.248 251.3706666666667 81.5786666666667C253.12 81.92 254.6666666666667 82.4213333333333 256 83.0826666666667zM171.7546666666667 109.088A8.661333333333333 8.661333333333333 0 0 0 171.3706666666667 106.5813333333334A14.080000000000002 14.080000000000002 0 0 0 170.4960000000001 104.3413333333334A8.074666666666667 8.074666666666667 0 0 0 168.8746666666667 102.336A7.530666666666667 7.530666666666667 0 0 0 166.7413333333334 101.088C167.5840000000001 100.7466666666667 168.3413333333334 100.3413333333334 169.0026666666667 99.8293333333334C169.6640000000001 99.328 170.1760000000001 98.752 170.4960000000001 98.08A8.917333333333332 8.917333333333332 0 0 0 171.2426666666667 95.84A13.866666666666667 13.866666666666667 0 0 0 171.4986666666667 93.088V87.0826666666667H164.2453333333334V92.0853333333333A10.527999999999999 10.527999999999999 0 0 1 163.8720000000001 95.0826666666667A4.234666666666667 4.234666666666667 0 0 1 162.9973333333334 96.832A7.541333333333333 7.541333333333333 0 0 1 161.0026666666668 97.7066666666667A11.594666666666667 11.594666666666667 0 0 1 157.7493333333334 98.08H150.0053333333334V87.0933333333333H142.9973333333334V117.088H160C161.8346666666667 117.088 163.456 116.96 164.8746666666667 116.704A9.408000000000001 9.408000000000001 0 0 0 168.5013333333333 115.328C169.6746666666667 114.8373333333333 170.496 114.048 170.9973333333333 112.96C171.4986666666667 111.872 171.744 110.5813333333333 171.744 109.088zM141.0026666666667 160.832A8.661333333333333 8.661333333333333 0 0 0 140.6293333333333 158.336A7.125333333333333 7.125333333333333 0 0 0 139.4986666666667 156.0853333333334A4.554666666666667 4.554666666666667 0 0 0 138.0053333333334 154.0800000000001A13.141333333333334 13.141333333333334 0 0 0 136 152.832C136.832 152.5013333333334 137.5786666666667 152.0853333333334 138.24 151.584C138.912 151.0826666666667 139.4133333333334 150.4960000000001 139.7546666666667 149.8346666666667A5.706666666666667 5.706666666666667 0 0 0 140.5013333333334 147.7013333333334C140.6613333333334 146.7946666666667 140.7466666666667 145.8346666666667 140.7466666666667 144.832V138.8373333333333H133.4933333333334V144.5866666666667A4.1066666666666665 4.1066666666666665 0 0 1 133.376 145.5786666666667A4.1066666666666665 4.1066666666666665 0 0 0 133.248 146.5813333333334A4.096 4.096 0 0 1 132.2453333333334 148.3306666666667A1.12 1.12 0 0 1 131.4986666666667 148.96A17.578666666666663 17.578666666666663 0 0 0 130.2506666666667 149.3333333333334A4.597333333333333 4.597333333333333 0 0 1 128.8746666666667 149.7066666666667A13.280000000000001 13.280000000000001 0 0 1 126.9973333333334 149.8346666666667H119.2533333333334V138.8373333333334H112V169.088L129.0026666666667 168.832C130.8373333333333 168.832 132.5013333333334 168.704 134.0053333333334 168.4586666666667C135.4986666666667 168.2133333333334 136.7466666666667 167.8293333333334 137.7493333333334 167.3386666666667C138.9226666666667 166.8373333333333 139.7546666666667 166.0373333333333 140.2453333333334 164.96C140.7466666666667 163.872 140.992 162.5066666666667 140.992 160.832zM199.7546666666667 93.3333333333334V87.0826666666667H175.7546666666667V117.0880000000001H199.7546666666667V110.8373333333334H183.008V105.3333333333334H199.4986666666667V99.3280000000001H182.9973333333333V93.3333333333334H199.744zM152.5013333333333 169.088V138.8373333333334H145.0026666666667V169.088H152.5013333333333zM229.504 96.5866666666667C229.504 93.4186666666667 228.544 91.04 226.624 89.4613333333334C224.704 87.872 221.824 87.0826666666667 218.0053333333334 87.0826666666667H204V93.3333333333333H218.0053333333334C219.3386666666667 93.3333333333333 220.3306666666667 93.5786666666667 220.992 94.08C221.664 94.5813333333333 222.0053333333334 95.328 222.0053333333334 96.3306666666667A2.154666666666667 2.154666666666667 0 0 1 221.504 97.7173333333333A2.6773333333333333 2.6773333333333333 0 0 1 220 98.5813333333333A16.08533333333333 16.08533333333333 0 0 1 217.8666666666667 98.9546666666667A21.52533333333333 21.52533333333333 0 0 1 215.4986666666667 99.0826666666667A31.78666666666667 31.78666666666667 0 0 0 212.6186666666667 99.2106666666666A24.864000000000004 24.864000000000004 0 0 0 210.0053333333334 99.584A5.322666666666666 5.322666666666666 0 0 0 207.3706666666667 100.2133333333333A7.328000000000001 7.328000000000001 0 0 0 205.248 102.08A6.271999999999999 6.271999999999999 0 0 0 203.7546666666667 104.5866666666667A11.082666666666665 11.082666666666665 0 0 0 203.2533333333334 108.0853333333333C203.2533333333334 109.5786666666667 203.4986666666667 110.88 204 111.9573333333333A8.213333333333333 8.213333333333333 0 0 0 206.2400000000001 114.8373333333333C207.2533333333334 115.4986666666667 208.3306666666667 116.0426666666667 209.5040000000001 116.4586666666667A11.840000000000002 11.840000000000002 0 0 0 213.5040000000001 117.088H228.0000000000001V110.8373333333333H214.7520000000001A5.013333333333333 5.013333333333333 0 0 1 211.7546666666667 110.0906666666667A2.3786666666666667 2.3786666666666667 0 0 1 210.7520000000001 108.0853333333333C210.7520000000001 107.4133333333333 210.9120000000001 106.912 211.2533333333334 106.592A3.1679999999999997 3.1679999999999997 0 0 1 212.7466666666667 105.8346666666667C213.4186666666667 105.664 214.1333333333334 105.5466666666667 214.8800000000001 105.4613333333333C215.6266666666667 105.376 216.5013333333334 105.3333333333333 217.5040000000001 105.3333333333333C218.3360000000001 105.3333333333333 219.2106666666667 105.2906666666667 220.1280000000001 105.2053333333334S221.9200000000001 105.088 222.7520000000001 105.088A8.106666666666667 8.106666666666667 0 0 0 227.4986666666667 102.5813333333334C228.1706666666667 101.92 228.6720000000001 101.088 228.9920000000001 100.0853333333334C229.3333333333334 99.0826666666667 229.5040000000001 97.92 229.5040000000001 96.5866666666667zM256 102.08V90.8373333333333A6.954666666666666 6.954666666666666 0 0 0 252.2453333333333 87.9573333333333A18.24 18.24 0 0 0 246.2506666666667 87.0826666666667H232.2453333333333V93.3333333333333H246.2506666666667A4.48 4.48 0 0 1 249.0026666666667 94.08C249.664 94.5813333333333 249.9946666666667 95.328 249.9946666666667 96.3306666666667A2.24 2.24 0 0 1 249.6213333333334 97.4613333333333A1.9946666666666666 1.9946666666666666 0 0 1 248.5013333333333 98.336A39.27466666666667 39.27466666666667 0 0 1 246.88 98.8373333333333A3.5733333333333337 3.5733333333333337 0 0 1 245.0026666666667 98.8373333333333C244.3306666666667 98.8373333333333 243.616 98.88 242.8693333333334 98.9546666666666A21.52533333333333 21.52533333333333 0 0 1 240.5013333333334 99.0826666666666A83.16799999999999 83.16799999999999 0 0 1 238.368 99.584A83.17866666666667 83.17866666666667 0 0 0 236.2453333333334 100.0853333333333A5.504 5.504 0 0 0 232.7466666666667 102.8373333333333A7.125333333333333 7.125333333333333 0 0 0 231.6266666666667 105.0773333333333A10.527999999999999 10.527999999999999 0 0 0 231.2533333333334 108.0853333333333C231.2533333333334 109.5786666666666 231.4986666666667 110.88 232 111.9573333333333A8.213333333333333 8.213333333333333 0 0 0 234.24 114.8373333333333C235.2533333333334 115.4986666666666 236.3733333333334 116.0426666666666 237.6213333333334 116.4586666666666C238.88 116.8746666666666 240.2453333333334 117.0879999999999 241.7493333333334 117.0879999999999H256V110.8373333333333H242.9973333333334A5.013333333333333 5.013333333333333 0 0 1 240 110.0906666666666A2.3786666666666667 2.3786666666666667 0 0 1 238.9973333333334 108.0853333333333C238.9973333333334 107.2533333333333 239.2533333333334 106.6239999999999 239.744 106.2079999999999C240.2453333333333 105.792 241.0026666666667 105.5786666666666 242.0053333333334 105.5786666666666A52.68266666666666 52.68266666666666 0 0 1 249.7493333333334 105.0879999999999C251.2426666666667 104.9173333333333 252.5013333333334 104.5866666666666 253.504 104.0853333333333C254.496 103.584 255.3386666666667 102.9119999999999 256 102.0799999999999zM237.76 168.832V138.8373333333333H227.4986666666667L214.0053333333333 161.3333333333334V138.8266666666667H199.2533333333333L196.2453333333333 145.5786666666667H181.504L178.752 138.8373333333333H170.2506666666667C165.5786666666667 138.8373333333333 162.0373333333333 140.0853333333334 159.6266666666667 142.5813333333334C157.2053333333333 145.088 156 148.7466666666667 156 153.5786666666667C156 158.752 157.2053333333333 162.624 159.6266666666667 165.2053333333333C162.0373333333333 167.7866666666667 165.7493333333334 169.088 170.752 169.088H177.7493333333334V162.336C177.5786666666667 162.336 177.216 162.3786666666667 176.6293333333333 162.4533333333334A13.280000000000001 13.280000000000001 0 0 1 174.752 162.5813333333334H170.3786666666667A4.373333333333333 4.373333333333333 0 0 1 168.992 162.336A3.477333333333333 3.477333333333333 0 0 1 167.4986666666667 162.08L166.496 161.5786666666667L165.8773333333334 160.96L165.0026666666667 160.0853333333333A5.8133333333333335 5.8133333333333335 0 0 1 164.1280000000001 158.9546666666667A2.6239999999999997 2.6239999999999997 0 0 1 163.7546666666667 157.5786666666667A9.162666666666667 9.162666666666667 0 0 1 163.3706666666667 155.8293333333333A16.149333333333335 16.149333333333335 0 0 1 163.6160000000001 150.208A9.856 9.856 0 0 1 164.7466666666667 147.328A4.48 4.48 0 0 1 166.88 145.8346666666666A9.941333333333333 9.941333333333333 0 0 1 170.2506666666667 145.3333333333333H173.504L183.744 168.832H194.4960000000001L206.7520000000001 140.3306666666667V168.832H217.7493333333334L230.2506666666667 148.0853333333333V168.832H237.7493333333334z" />
    <glyph glyph-name="card-mastercard"
      unicode="&#xEA44;"
      horiz-adv-x="256" d="M74.496 123.84H73.0026666666667C71.328 123.84 70.08 123.5413333333334 69.248 122.9546666666667C68.416 122.3786666666667 68 121.504 68 120.3306666666667C68 119.4986666666667 68.1706666666667 118.88 68.5013333333333 118.4533333333334C68.832 118.0373333333334 69.3333333333333 117.8346666666667 69.9946666666667 117.8346666666667A3.0826666666666664 3.0826666666666664 0 0 1 71.7546666666667 118.336A9.930666666666665 9.930666666666665 0 0 1 73.248 119.584A7.872000000000001 7.872000000000001 0 0 1 74.496 123.8293333333333zM118.496 127.8293333333333H125.248V128.3306666666667C125.4186666666667 128.3306666666667 125.504 128.416 125.504 128.5866666666667V128.832C125.3333333333333 129.0026666666667 125.248 129.1626666666667 125.248 129.3333333333333V130.208C125.248 130.2933333333334 125.1626666666667 130.4213333333333 125.0026666666667 130.5813333333333C125.0026666666667 130.752 124.96 130.88 124.8746666666667 130.9546666666667L124.5013333333333 131.3386666666667C124.5013333333333 131.4986666666667 124.416 131.6266666666667 124.2453333333333 131.712A1.1093333333333333 1.1093333333333333 0 0 1 123.7546666666667 131.8293333333334A0.8533333333333334 0.8533333333333334 0 0 1 123.1253333333333 132.0853333333333H122.496A3.3920000000000003 3.3920000000000003 0 0 1 120 131.0826666666667A6.570666666666667 6.570666666666667 0 0 1 118.5066666666667 127.8293333333333zM178.496 123.8293333333333H177.0026666666667A7.210666666666668 7.210666666666668 0 0 1 173.12 122.9546666666667A2.9013333333333335 2.9013333333333335 0 0 1 171.7546666666667 120.3306666666667C171.7546666666667 119.4986666666667 171.968 118.88 172.3733333333333 118.4533333333334C172.8 118.0373333333334 173.3333333333333 117.8346666666667 173.9946666666666 117.8346666666667A3.0826666666666664 3.0826666666666664 0 0 1 175.7546666666666 118.336A4.458666666666666 4.458666666666666 0 0 1 177.0026666666666 119.584A4.704000000000001 4.704000000000001 0 0 1 178.1226666666666 121.4613333333333A7.466666666666667 7.466666666666667 0 0 1 178.496 123.8293333333333zM213.9946666666667 126.8373333333333C213.9946666666667 128.3306666666667 213.7066666666667 129.4613333333333 213.12 130.208C212.544 130.9546666666667 211.6693333333333 131.328 210.496 131.328A3.7226666666666666 3.7226666666666666 0 0 1 208.6293333333333 130.8373333333333A4.768000000000001 4.768000000000001 0 0 1 206.9973333333333 129.088A13.376 13.376 0 0 1 205.7493333333334 123.328C205.7493333333334 121.8346666666667 205.9946666666667 120.704 206.496 119.9573333333334C206.9973333333333 119.2106666666667 207.8293333333334 118.8373333333333 209.0026666666667 118.8373333333333A3.7226666666666666 3.7226666666666666 0 0 1 210.88 119.328A4.768000000000001 4.768000000000001 0 0 1 212.5013333333333 121.088A6.912 6.912 0 0 1 213.6213333333333 123.584C213.8773333333333 124.5866666666667 213.9946666666667 125.664 213.9946666666667 126.8373333333333zM53.248 142.336H62.9973333333333L58.0053333333333 113.3333333333334H52L55.4986666666667 135.584L47.4986666666667 113.3333333333334H43.2533333333333L42.752 135.584L38.9973333333333 113.3333333333334H33.0026666666667L38.0053333333333 142.336H46.9973333333333L47.2533333333333 124.3306666666667L53.248 142.336zM81.504 130.5813333333333A138.21866666666665 138.21866666666665 0 0 0 81.0026666666667 125.8346666666667C80.3306666666667 122.1653333333333 79.872 119.296 79.616 117.2053333333333A27.52 27.52 0 0 0 78.9973333333333 113.3333333333333H74.0053333333333V115.8293333333333A6.239999999999999 6.239999999999999 0 0 0 71.3706666666667 113.5893333333333A9.184000000000001 9.184000000000001 0 0 0 67.4986666666667 112.8426666666667A4.960000000000001 4.960000000000001 0 0 0 65.2586666666667 113.3333333333333A6.6773333333333325 6.6773333333333325 0 0 0 63.4986666666667 114.5813333333333A5.471999999999999 5.471999999999999 0 0 0 62.1226666666667 116.7146666666666A8.32 8.32 0 0 0 61.7493333333333 119.328C61.7493333333333 120.832 62.0053333333333 122.1226666666667 62.496 123.2106666666667A8.213333333333333 8.213333333333333 0 0 0 64.7466666666667 126.0906666666666A6.88 6.88 0 0 0 68.128 127.8293333333333C69.5466666666667 128.1706666666667 71.0826666666667 128.3306666666666 72.7466666666667 128.3306666666666H75.2533333333333V128.704C75.2533333333333 128.7893333333333 75.3386666666667 128.832 75.4986666666667 128.832V129.8346666666666C75.4986666666667 130.496 75.168 131.04 74.496 131.456A5.76 5.76 0 0 1 71.5093333333333 132.0853333333333A14.186666666666666 14.186666666666666 0 0 1 68.3733333333333 131.712A79.47733333333333 79.47733333333333 0 0 1 65.0026666666667 130.8373333333333C65.0026666666667 130.9973333333333 65.088 131.5413333333333 65.248 132.4586666666667A51.946666666666665 51.946666666666665 0 0 1 65.7493333333333 136.3306666666667C67.2426666666667 136.6613333333333 68.5866666666667 136.9173333333333 69.7493333333333 137.0773333333333C70.9226666666667 137.248 72.0853333333333 137.3333333333333 73.248 137.3333333333333C75.9146666666667 137.3333333333333 77.9626666666667 136.8 79.3706666666667 135.712C80.7893333333333 134.624 81.504 132.9173333333333 81.504 130.592zM98.752 137.088L98.0053333333333 131.584A12.128000000000002 12.128000000000002 0 0 1 95.6266666666667 131.8293333333333H93.248A4.096 4.096 0 0 1 91.008 131.3386666666667C90.496 130.9973333333333 90.2506666666667 130.592 90.2506666666667 130.08A2.7733333333333334 2.7733333333333334 0 0 1 90.3786666666667 129.2053333333333C90.4533333333333 128.96 90.592 128.7466666666667 90.752 128.5866666666667A2.6773333333333333 2.6773333333333333 0 0 1 91.6266666666667 128.0853333333333C92.0426666666667 127.9146666666667 92.5866666666667 127.6586666666667 93.248 127.3386666666667C94.7413333333334 126.6666666666667 95.872 125.792 96.6293333333333 124.704C97.376 123.6266666666666 97.7493333333333 122.336 97.7493333333333 120.832C97.7493333333333 118.1653333333333 96.9173333333334 116.1706666666667 95.2533333333334 114.8373333333333C93.5786666666667 113.504 91.168 112.832 88 112.832A21.546666666666667 21.546666666666667 0 0 0 84.5013333333334 113.088L81.504 113.5786666666667L81.7493333333334 114.9653333333333C81.92 115.872 82.08 117.248 82.2506666666667 119.0826666666667A33.06666666666667 33.06666666666667 0 0 1 85.376 118.336C86.2933333333334 118.1653333333333 87.168 118.08 88 118.08A5.4399999999999995 5.4399999999999995 0 0 1 90.624 118.5813333333333C91.2106666666667 118.912 91.4986666666667 119.4986666666667 91.4986666666667 120.3306666666667A2.058666666666667 2.058666666666667 0 0 1 90.9973333333334 121.5786666666666A2.6773333333333333 2.6773333333333333 0 0 1 90.1226666666667 122.08A7.658666666666667 7.658666666666667 0 0 0 88.7466666666667 122.8266666666666A9.386666666666667 9.386666666666667 0 0 0 85.12 125.7066666666666A6.218666666666667 6.218666666666667 0 0 0 84 129.3333333333333C84 132 84.7466666666667 133.9946666666666 86.24 135.3386666666666C87.7546666666667 136.6613333333333 90.08 137.3333333333333 93.248 137.3333333333333H96.3733333333333C97.2906666666667 137.3333333333333 98.08 137.2479999999999 98.752 137.088zM108.5013333333333 137.088H111.7546666666667L111.008 131.328H107.7546666666667A16.08533333333333 16.08533333333333 0 0 1 107.3706666666667 129.2053333333333C107.296 128.4586666666667 107.1573333333333 127.6693333333333 106.9973333333333 126.8373333333333A32.85333333333333 32.85333333333333 0 0 0 106.496 124.3306666666667A8.213333333333333 8.213333333333333 0 0 1 106.2506666666667 122.336A4.117333333333334 4.117333333333334 0 0 1 105.9946666666667 121.088V120.3413333333334A1.7066666666666668 1.7066666666666668 0 0 1 106.496 119.0826666666667C106.8373333333333 118.752 107.3386666666667 118.5813333333334 108 118.5813333333334A2.7733333333333334 2.7733333333333334 0 0 1 108.8746666666667 118.7093333333334A2.7733333333333334 2.7733333333333334 0 0 0 109.7493333333333 118.8373333333333L109.0026666666667 113.5786666666667C108.1706666666667 113.4186666666667 107.3706666666667 113.2586666666667 106.624 113.088A9.813333333333334 9.813333333333334 0 0 0 104.4906666666667 112.832C102.8373333333333 112.832 101.5786666666667 113.2906666666667 100.7573333333333 114.208A5.546666666666667 5.546666666666667 0 0 0 99.4986666666667 118.08C99.4986666666667 118.5813333333333 99.584 119.328 99.7546666666667 120.3306666666667A64.53333333333333 64.53333333333333 0 0 1 100.2453333333333 124.3306666666667C100.416 125.0026666666667 100.7466666666667 126.7093333333333 101.248 129.4506666666667C101.7493333333333 132.2133333333333 102.336 135.9146666666667 102.9973333333333 140.5866666666667H109.248L108.5013333333333 137.088zM131.008 128.832C131.008 128 130.9546666666667 127.1253333333333 130.88 126.208A17.216 17.216 0 0 0 130.24 123.0826666666667H117.9946666666667A3.5626666666666664 3.5626666666666664 0 0 1 118.1226666666667 120.9493333333333C118.3786666666667 120.3733333333333 118.6666666666667 119.8293333333333 118.9973333333334 119.328A5.514666666666667 5.514666666666667 0 0 1 120.8746666666667 118.5813333333333C121.6213333333334 118.4213333333333 122.4213333333334 118.336 123.2533333333334 118.336A14.005333333333331 14.005333333333331 0 0 1 129.76 119.8293333333334L128.7466666666667 113.8346666666667A29.653333333333336 29.653333333333336 0 0 0 125.504 113.088A18.218666666666667 18.218666666666667 0 0 0 122.4960000000001 112.832C118.9973333333334 112.832 116.3733333333334 113.7066666666667 114.6240000000001 115.456C112.8746666666667 117.2053333333334 112 119.8293333333334 112 123.3386666666667C112 125.504 112.2453333333334 127.4133333333334 112.7466666666667 129.088C113.2480000000001 130.752 113.9946666666667 132.2453333333334 114.9973333333334 133.5786666666667A9.056 9.056 0 0 0 118.3786666666667 136.4586666666667A10.24 10.24 0 0 0 122.7520000000001 137.3333333333334C123.9253333333334 137.3333333333334 125.0453333333334 137.1626666666667 126.1226666666667 136.832A5.247999999999999 5.247999999999999 0 0 0 128.7466666666667 135.0826666666667A7.018666666666667 7.018666666666667 0 0 0 130.4960000000001 132.3306666666667C130.8373333333334 131.328 130.9973333333334 130.1653333333334 130.9973333333334 128.832zM146.496 137.088C146.0053333333333 136.2453333333333 145.536 135.2533333333333 145.12 134.08A40 40 0 0 1 144 130.336A3.1679999999999997 3.1679999999999997 0 0 1 142.1226666666667 129.7066666666667A4.1066666666666665 4.1066666666666665 0 0 1 140.7466666666667 127.5733333333333A57.60000000000001 57.60000000000001 0 0 1 139.4986666666667 122.5813333333333C138.9973333333333 120.2453333333333 138.496 117.1626666666667 138.0053333333333 113.3333333333334H131.7546666666667L132 114.8266666666667C132.832 119.6693333333334 133.4933333333333 123.9146666666667 134.0053333333333 127.584L135.2533333333333 137.0773333333334H141.0026666666667L140.5013333333333 133.3333333333334A9.930666666666665 9.930666666666665 0 0 0 143.4986666666667 136.5866666666667A2.24 2.24 0 0 0 144.7466666666667 137.2053333333333A4.341333333333334 4.341333333333334 0 0 0 146.496 137.088zM167.2533333333333 141.5786666666667L166.2506666666666 135.3386666666667A15.701333333333332 15.701333333333332 0 0 1 163.3706666666666 136.4586666666667A9.973333333333334 9.973333333333334 0 0 1 160.7466666666667 136.832A6.421333333333333 6.421333333333333 0 0 1 157.6213333333333 136.0853333333333A9.237333333333334 9.237333333333334 0 0 1 154.9973333333333 133.8346666666667C154.336 132.832 153.824 131.6693333333333 153.504 130.336A17.471999999999998 17.471999999999998 0 0 1 153.0026666666667 126.08C153.0026666666667 124.9066666666667 153.12 123.9146666666667 153.376 123.0933333333333A7.125333333333333 7.125333333333333 0 0 1 154.496 120.832A4.906666666666667 4.906666666666667 0 0 1 156.2453333333333 119.3386666666667A5.493333333333333 5.493333333333333 0 0 1 158.752 118.8373333333333A9.237333333333334 9.237333333333334 0 0 1 161.12 119.2106666666667C162.0373333333333 119.456 162.9973333333333 119.8293333333333 164 120.3306666666667L162.9973333333333 113.824A33.06666666666667 33.06666666666667 0 0 0 159.872 113.0773333333334A14.688 14.688 0 0 0 157.248 112.832C155.584 112.832 154.08 113.12 152.7466666666667 113.7066666666667A7.722666666666666 7.722666666666666 0 0 0 149.504 116.3306666666667A11.829333333333333 11.829333333333333 0 0 0 147.2533333333333 120.3306666666667A15.744000000000002 15.744000000000002 0 0 0 146.5066666666666 125.3333333333334C146.5066666666666 128 146.8266666666666 130.3786666666667 147.4986666666666 132.4586666666667C148.1706666666666 134.5386666666667 149.1626666666666 136.416 150.496 138.08C151.6693333333333 139.7546666666667 153.12 141.0026666666667 154.8693333333333 141.8346666666667A12.906666666666666 12.906666666666666 0 0 0 160.5013333333333 143.0826666666667C161.504 143.0826666666667 162.5813333333333 142.9546666666667 163.7546666666666 142.7093333333334C164.9173333333333 142.4533333333334 166.08 142.08 167.2533333333333 141.5786666666667zM185.248 130.592C185.248 129.92 185.2053333333333 129.2053333333333 185.12 128.4586666666667A24.106666666666666 24.106666666666666 0 0 1 185.0026666666667 125.8346666666667C184.5013333333333 122.9973333333333 184.0853333333333 120.544 183.7546666666667 118.4533333333333C183.4133333333333 116.3733333333333 183.168 114.6666666666667 183.008 113.3333333333333H177.9946666666667V115.8293333333333A6.111999999999998 6.111999999999998 0 0 0 175.2533333333333 113.5893333333333A9.418666666666667 9.418666666666667 0 0 0 171.4986666666667 112.8426666666667A6.143999999999999 6.143999999999999 0 0 0 167.2533333333333 114.592A7.466666666666667 7.466666666666667 0 0 0 165.76 119.328C165.76 120.832 166.0053333333333 122.1226666666667 166.5066666666667 123.2106666666667A9.898666666666667 9.898666666666667 0 0 0 168.5013333333333 126.0906666666666A8.671999999999999 8.671999999999999 0 0 0 172 127.8293333333333C173.3333333333334 128.1706666666667 174.912 128.3306666666666 176.7466666666667 128.3306666666666H179.2533333333333C179.2533333333333 128.6613333333333 179.296 128.9173333333333 179.3706666666667 129.0773333333333A1.7386666666666666 1.7386666666666666 0 0 1 179.4986666666667 129.824C179.4986666666667 130.496 179.168 131.04 178.496 131.456A5.76 5.76 0 0 1 175.5093333333333 132.0853333333333C174.336 132.0853333333333 173.2053333333333 131.9573333333333 172.128 131.712C171.04 131.456 169.9946666666666 131.168 169.0026666666666 130.8373333333333C169.0026666666666 130.9973333333333 169.0453333333333 131.5413333333333 169.12 132.4586666666667A38.4 38.4 0 0 0 169.7599999999999 136.3306666666667C171.2533333333333 136.6613333333333 172.5866666666666 136.9173333333333 173.7493333333333 137.0773333333333C174.9226666666666 137.248 176.0853333333333 137.3333333333333 177.2479999999999 137.3333333333333C179.9146666666666 137.3333333333333 181.9199999999999 136.8 183.2533333333333 135.712C184.5866666666666 134.624 185.2479999999999 132.9173333333333 185.2479999999999 130.592zM201.0026666666667 137.088A17.610666666666667 17.610666666666667 0 0 1 198.7626666666666 130.336A3.5626666666666664 3.5626666666666664 0 0 1 196.6293333333333 129.7066666666667A4.1066666666666665 4.1066666666666665 0 0 1 195.2426666666667 127.5733333333333C194.9226666666667 126.752 194.496 125.12 194.0053333333333 122.7093333333333C193.504 120.288 192.9173333333333 117.1626666666667 192.2453333333333 113.3333333333333H186.0053333333333L186.496 114.8266666666667C187.168 118.6666666666667 187.7546666666667 122.4533333333333 188.2453333333333 126.208C188.7466666666667 129.9626666666667 189.248 133.5786666666667 189.7493333333333 137.088H195.5093333333333C195.5093333333333 136.5866666666667 195.456 136.0426666666667 195.3706666666666 135.456C195.296 134.88 195.1573333333333 134.176 194.9973333333333 133.3333333333333A9.930666666666665 9.930666666666665 0 0 0 197.9946666666666 136.5866666666667A2.24 2.24 0 0 0 199.2533333333333 137.2053333333333A4.341333333333334 4.341333333333334 0 0 0 201.0026666666667 137.088zM216.7466666666667 142.336H222.9973333333333L218.0053333333333 113.3333333333334H212.2453333333333L212.5013333333333 115.3386666666667A9.013333333333332 9.013333333333332 0 0 0 209.8773333333333 113.4613333333334A7.466666666666667 7.466666666666667 0 0 0 206.752 112.832A6.421333333333333 6.421333333333333 0 0 0 203.6266666666666 113.5786666666667A7.797333333333333 7.797333333333333 0 0 0 201.248 115.584A8.458666666666666 8.458666666666666 0 0 0 199.7546666666666 118.5813333333334A14.581333333333333 14.581333333333333 0 0 0 199.2533333333333 122.5813333333334C199.2533333333333 124.5866666666667 199.4986666666666 126.4533333333334 200 128.2133333333334C200.5013333333333 129.9626666666667 201.248 131.4986666666667 202.24 132.8320000000001C203.2533333333333 134.3253333333334 204.3733333333333 135.456 205.6213333333333 136.2133333333334A7.434666666666666 7.434666666666666 0 0 0 209.504 137.3333333333334C210.6666666666667 137.3333333333334 211.712 137.0453333333334 212.6293333333333 136.4586666666667C213.5466666666667 135.872 214.4213333333333 135.0826666666667 215.2533333333333 134.0800000000001L216.7466666666667 142.3360000000001zM229.0026666666667 128.0853333333333C229.0026666666667 133.5786666666667 228.3306666666667 138.8373333333333 226.9973333333333 143.8293333333333A60.62933333333333 60.62933333333333 0 0 1 221.0026666666667 158.336A58.89066666666667 58.89066666666667 0 0 1 211.5093333333333 170.8373333333333A58.901333333333326 58.901333333333326 0 0 1 198.9973333333333 180.3306666666667A60.117333333333335 60.117333333333335 0 0 1 168.4906666666667 188.3306666666667C161.8346666666666 188.3306666666667 155.456 187.3386666666667 149.376 185.3333333333333A62.80533333333333 62.80533333333333 0 0 1 132 176.3306666666667C136.832 172 140.832 167.2106666666667 144 161.9626666666667C147.168 156.704 149.504 150.912 150.9973333333333 144.576H145.504A62.18666666666667 62.18666666666667 0 0 1 138.624 160.0853333333333A61.73866666666667 61.73866666666667 0 0 1 128 172.832C123.84 168.992 120.288 164.7466666666667 117.376 160.0853333333333A62.18666666666667 62.18666666666667 0 0 1 110.496 144.5866666666667H105.0026666666667A60.58666666666667 60.58666666666667 0 0 0 112 161.9626666666667A62.944 62.944 0 0 0 124 176.3306666666667A62.80533333333333 62.80533333333333 0 0 1 106.624 185.3333333333334A60.84266666666666 60.84266666666666 0 0 1 87.4986666666667 188.3306666666667A60.117333333333335 60.117333333333335 0 0 1 56.992 180.3306666666667C52.3306666666667 177.664 48.1706666666667 174.496 44.5013333333333 170.8373333333333A58.98666666666667 58.98666666666667 0 0 1 35.008 158.336C32.3413333333333 153.664 30.336 148.8426666666667 29.0026666666667 143.8293333333333C27.6693333333333 138.8373333333333 26.9973333333333 133.5893333333334 26.9973333333333 128.0853333333333S27.6693333333333 117.2906666666667 29.0026666666667 112.2133333333333C30.336 107.1253333333333 32.3306666666667 102.2506666666666 34.9973333333333 97.5786666666666C37.664 93.088 40.832 89.0026666666666 44.4906666666667 85.3333333333333C48.1706666666667 81.664 52.3306666666667 78.4213333333333 57.0026666666667 75.584A60.10666666666666 60.10666666666666 0 0 1 87.5093333333333 67.584C94.1653333333333 67.584 100.544 68.5866666666667 106.624 70.5813333333333A59.45599999999999 59.45599999999999 0 0 1 124 79.8293333333333A61.727999999999994 61.727999999999994 0 0 0 105.504 109.088H110.9973333333334C112.832 103.9146666666666 115.1253333333334 99.2106666666666 117.8773333333334 94.9546666666666A55.46666666666667 55.46666666666667 0 0 1 128 83.328A55.46666666666667 55.46666666666667 0 0 1 138.1333333333333 94.9546666666666C140.8746666666667 99.2106666666666 143.168 103.9146666666667 145.0026666666667 109.088H150.496A61.727999999999994 61.727999999999994 0 0 0 132 79.84C137.504 75.6693333333333 143.296 72.5866666666667 149.376 70.5813333333333C155.456 68.5866666666667 161.8346666666667 67.584 168.5013333333333 67.584A60.10666666666666 60.10666666666666 0 0 1 199.008 75.584C203.6693333333333 78.4213333333333 207.8293333333333 81.664 211.4986666666667 85.3333333333333C215.168 89.0026666666666 218.3253333333333 93.088 220.992 97.5786666666666A60.10666666666666 60.10666666666666 0 0 1 228.992 128.0853333333333zM256 199.0826666666667V56.832C256 54.9973333333333 255.6693333333334 53.248 254.9973333333334 51.584A14.239999999999998 14.239999999999998 0 0 0 251.7546666666667 46.8373333333333A15.072000000000001 15.072000000000001 0 0 0 247.2533333333334 43.712A13.333333333333332 13.333333333333332 0 0 0 241.7493333333334 42.5813333333333H14.2506666666667A13.120000000000001 13.120000000000001 0 0 0 8.7466666666667 43.712A15.072000000000001 15.072000000000001 0 0 0 4.2453333333333 46.8373333333333A14.186666666666666 14.186666666666666 0 0 0 1.0026666666667 51.584A14.005333333333331 14.005333333333331 0 0 0 0 56.832V199.0826666666667C0 201.088 0.3306666666667 202.9226666666667 1.0026666666667 204.5866666666667A11.946666666666665 11.946666666666665 0 0 0 4.2453333333333 209.088A11.946666666666665 11.946666666666665 0 0 0 8.7466666666667 212.3306666666667A14.400000000000002 14.400000000000002 0 0 0 14.2506666666667 213.3333333333334H241.7493333333333C243.7546666666667 213.3333333333334 245.5893333333333 213.0026666666667 247.2533333333333 212.3306666666667C248.9173333333333 211.6693333333333 250.4213333333333 210.5813333333333 251.7546666666666 209.088C253.248 207.7546666666667 254.336 206.2506666666667 254.9973333333333 204.5866666666667C255.6693333333333 202.912 256 201.088 256 199.0826666666667z" />
    </font>
</defs>
</svg>
